<svg xmlns="http://www.w3.org/2000/svg" width="304" height="42" fill="none"><g clip-path="url(#a)"><path fill="#89C8F4" d="M34.096 8.26c-3.654 0-6.95 1.577-9.255 4.093l4.127 6.289c.89-1.965 2.853-3.334 5.128-3.334 3.11 0 5.638 2.553 5.638 5.692 0 3.14-2.529 5.693-5.638 5.693-2.102 0-3.84-1.227-4.906-2.894-5.43-8.491-4.611-7.297-6.368-10.068-.427-.673-.94-1.371-1.069-1.508-2.3-2.44-5.544-3.963-9.135-3.963C5.661 8.26 0 13.975 0 21s5.66 12.74 12.618 12.74c3.673 0 6.983-1.592 9.29-4.13l-4.099-6.388c-.859 2.038-2.862 3.47-5.19 3.47-3.11 0-5.639-2.553-5.639-5.692 0-3.139 2.53-5.692 5.638-5.692 2.074 0 3.833 1.172 4.87 2.827 4.259 6.796 4.654 7.323 6.498 10.212.475.745 1.243 1.714 1.494 1.95a12.507 12.507 0 0 0 8.616 3.443c6.958 0 12.619-5.715 12.619-12.74S41.054 8.26 34.096 8.26Z"/></g><path fill="#000" d="M57.117 35V10.141h4.538V35h-4.538Zm8.953 0V16.848h4.104v3.57l-.334-.634c.423-1.09 1.112-1.913 2.069-2.469.979-.578 2.113-.867 3.403-.867 1.335 0 2.514.289 3.537.867a6.11 6.11 0 0 1 2.436 2.436c.579 1.023.868 2.213.868 3.57V35H77.78V24.356c0-.801-.155-1.49-.467-2.07a3.272 3.272 0 0 0-1.3-1.334c-.535-.333-1.169-.5-1.903-.5-.712 0-1.346.167-1.902.5-.556.312-.99.757-1.301 1.335-.312.578-.467 1.268-.467 2.069V35H66.07Zm21.881 0V20.752h-3.203v-3.904h3.203v-.6c0-1.38.278-2.548.834-3.504a5.686 5.686 0 0 1 2.403-2.236c1.023-.511 2.235-.767 3.637-.767.267 0 .556.022.867.066.334.023.612.056.835.1v3.771a3.236 3.236 0 0 0-.634-.067 4.056 4.056 0 0 0-.5-.033c-.98 0-1.736.222-2.27.667-.534.423-.8 1.09-.8 2.002v.601h7.941v3.904h-7.942V35h-4.37Zm10.678 0V16.848h4.404V35h-4.404Zm8.042 0V16.848h4.104v3.57l-.333-.634c.422-1.09 1.112-1.913 2.068-2.469.979-.578 2.114-.867 3.404-.867 1.335 0 2.514.289 3.537.867a6.118 6.118 0 0 1 2.436 2.436c.578 1.023.867 2.213.867 3.57V35h-4.371V24.356c0-.801-.156-1.49-.467-2.07a3.27 3.27 0 0 0-1.301-1.334c-.534-.333-1.168-.5-1.902-.5-.712 0-1.346.167-1.902.5-.556.312-.99.757-1.302 1.335-.311.578-.467 1.268-.467 2.069V35h-4.371Zm19.78 0V16.848h4.371V35h-4.371Zm0-20.187V10.14h4.371v4.672h-4.371ZM133.223 35l6.339-9.11-6.373-9.042h5.139l4.972 7.34h-2.303l4.972-7.34h5.105l-6.34 9.043L151.041 35h-5.105l-4.905-7.308h2.235L138.361 35h-5.138Z"/><path stroke="#000" d="M159.715 8.26v25.48"/><path fill="#000" d="m171.112 18-3.264-9.04h1.274l2.767 7.948h-.255L174.4 8.96h1.274L172.422 18h-1.31Zm5.703 0V8.96h3.191c.599 0 1.124.114 1.577.34.453.227.805.55 1.056.97.259.421.388.915.388 1.481 0 .64-.162 1.181-.485 1.626a2.68 2.68 0 0 1-1.311.959l2.1 3.664h-1.384l-2.208-3.92.789.462h-2.524V18h-1.189Zm1.189-4.55h2.038c.356 0 .668-.069.935-.206.267-.138.473-.336.618-.595.154-.259.231-.558.231-.898 0-.348-.077-.647-.231-.898a1.457 1.457 0 0 0-.618-.594 2.016 2.016 0 0 0-.935-.207h-2.038v3.398Zm7.854 6.006 4.077-9.998h1.274l-4.077 9.998h-1.274ZM193.526 18l3.239-9.04h1.408l3.239 9.04h-1.274l-.74-2.123h-3.858L194.8 18h-1.274Zm2.39-3.215h3.106l-1.723-4.963h.34l-1.723 4.963ZM202.551 18V8.96h3.192c.598 0 1.124.114 1.577.34.453.227.805.55 1.056.97.258.421.388.915.388 1.481 0 .64-.162 1.181-.485 1.626a2.68 2.68 0 0 1-1.311.959L209.067 18h-1.383l-2.208-3.92.788.462h-2.523V18h-1.19Zm1.19-4.55h2.038c.356 0 .667-.069.934-.206a1.46 1.46 0 0 0 .619-.595c.154-.259.231-.558.231-.898 0-.348-.077-.647-.231-.898a1.46 1.46 0 0 0-.619-.594 2.012 2.012 0 0 0-.934-.207h-2.038v3.398ZM214.614 18V8.96h2.961c.914 0 1.711.186 2.39.559a3.899 3.899 0 0 1 1.577 1.577c.372.671.559 1.464.559 2.378 0 .906-.187 1.699-.559 2.378a3.978 3.978 0 0 1-1.577 1.59c-.679.372-1.476.558-2.39.558h-2.961Zm1.189-1.092h1.784c.671 0 1.25-.142 1.735-.425.493-.283.874-.68 1.14-1.189.267-.518.401-1.124.401-1.82 0-.704-.138-1.31-.413-1.82a2.81 2.81 0 0 0-1.14-1.177c-.486-.283-1.06-.425-1.723-.425h-1.784v6.856ZM223.608 18V8.96h5.884v1.092h-4.695v2.864h4.453v1.092h-4.453v2.9h4.695V18h-5.884Zm9.748 0-3.264-9.04h1.274l2.767 7.948h-.255l2.767-7.948h1.274L234.667 18h-1.311Zm5.703 0V8.96h5.885v1.092h-4.696v2.864h4.453v1.092h-4.453v2.9h4.696V18h-5.885Zm7.359 0V8.96h1.189v7.948h3.967V18h-5.156Zm10.576.146a4.73 4.73 0 0 1-1.796-.34 4.539 4.539 0 0 1-1.468-.983 4.61 4.61 0 0 1-.971-1.48 4.886 4.886 0 0 1-.352-1.869c0-.68.117-1.302.352-1.869.235-.566.558-1.06.971-1.48.42-.42.906-.744 1.456-.97a4.759 4.759 0 0 1 1.808-.34c.647 0 1.245.117 1.795.352.559.226 1.044.55 1.456.97.421.413.749.902.983 1.468a4.69 4.69 0 0 1 .364 1.87c0 .67-.121 1.293-.364 1.868a4.497 4.497 0 0 1-.983 1.48c-.412.42-.897.748-1.456.983-.55.226-1.148.34-1.795.34Zm0-1.105c.501 0 .958-.088 1.371-.267.412-.186.768-.44 1.067-.764.308-.332.542-.712.704-1.14.17-.437.255-.902.255-1.396 0-.493-.085-.954-.255-1.383a3.317 3.317 0 0 0-.704-1.128 3.047 3.047 0 0 0-1.067-.765 3.3 3.3 0 0 0-1.371-.279c-.494 0-.947.093-1.359.279a3.161 3.161 0 0 0-1.08.764c-.3.324-.534.7-.704 1.129-.17.429-.255.89-.255 1.383 0 .494.085.959.255 1.396.17.428.404.808.704 1.14.307.324.667.578 1.08.764a3.39 3.39 0 0 0 1.359.267Zm6.333.959V8.96h3.191c.598 0 1.124.114 1.577.34.453.227.805.55 1.056.97.259.421.388.915.388 1.481 0 .566-.129 1.06-.388 1.48a2.612 2.612 0 0 1-1.056.971c-.445.227-.971.34-1.577.34h-2.002V18h-1.189Zm1.189-4.55h2.038c.364 0 .68-.069.947-.206.266-.138.473-.336.618-.595.146-.259.219-.558.219-.898 0-.348-.073-.647-.219-.898a1.463 1.463 0 0 0-.618-.594 2.044 2.044 0 0 0-.947-.207h-2.038v3.398Zm6.631 4.55V8.96h1.092l3.385 4.817h-.558l3.361-4.817h1.092V18h-1.201v-7.535l.425.133-3.361 4.733h-.097l-3.325-4.732.376-.134V18h-1.189Zm10.38 0V8.96h5.885v1.092h-4.696v2.864h4.453v1.092h-4.453v2.9h4.696V18h-5.885Zm7.358 0V8.96h.995l5.194 7.305-.449.048V8.96h1.201V18h-.995l-5.169-7.353.413-.049V18h-1.19Zm10.536 0v-7.948h-2.451V8.96h6.067v1.092h-2.415V18h-1.201Z"/><defs><clipPath id="a"><path fill="#fff" d="M0 8.26h46.715v25.48H0z"/></clipPath></defs></svg>