<svg xmlns="http://www.w3.org/2000/svg" width="203" height="43" fill="none"><g clip-path="url(#a)"><path fill="#DB3957" d="M34.096 9.563c-3.654 0-6.95 1.578-9.255 4.094l4.127 6.288c.89-1.965 2.853-3.334 5.128-3.334 3.11 0 5.638 2.554 5.638 5.693s-2.529 5.692-5.638 5.692c-2.102 0-3.84-1.226-4.906-2.893-5.43-8.492-4.611-7.298-6.368-10.068-.427-.674-.94-1.372-1.069-1.508-2.3-2.44-5.544-3.964-9.135-3.964C5.661 9.563 0 15.28 0 22.303c0 7.026 5.66 12.741 12.618 12.741 3.673 0 6.983-1.592 9.29-4.13l-4.099-6.389c-.859 2.039-2.862 3.471-5.19 3.471-3.11 0-5.639-2.553-5.639-5.692 0-3.14 2.53-5.693 5.638-5.693 2.074 0 3.833 1.173 4.87 2.828 4.259 6.795 4.654 7.323 6.498 10.212.475.744 1.243 1.713 1.494 1.95a12.507 12.507 0 0 0 8.616 3.443c6.958 0 12.619-5.715 12.619-12.74s-5.661-12.74-12.619-12.74Z"/></g><path fill="#000" d="M59.127 35.462V10.603h4.538v24.859h-4.538Zm8.952 0V17.31h4.105v3.57l-.334-.634c.423-1.09 1.112-1.913 2.069-2.469.979-.578 2.113-.867 3.403-.867 1.335 0 2.514.289 3.537.867a6.11 6.11 0 0 1 2.436 2.436c.579 1.023.868 2.213.868 3.57v11.679h-4.371V24.818c0-.801-.156-1.49-.468-2.07a3.272 3.272 0 0 0-1.3-1.334c-.535-.334-1.169-.5-1.903-.5-.712 0-1.346.166-1.902.5-.556.312-.99.756-1.301 1.335-.312.578-.467 1.268-.467 2.069v10.644H68.08Zm21.882 0V21.214h-3.203V17.31h3.203v-.6c0-1.38.278-2.548.834-3.504a5.686 5.686 0 0 1 2.403-2.236c1.023-.512 2.235-.767 3.637-.767.267 0 .556.022.867.066.334.023.612.056.835.1v3.771a3.236 3.236 0 0 0-.634-.067 4.037 4.037 0 0 0-.5-.033c-.98 0-1.736.222-2.27.667-.534.423-.8 1.09-.8 2.002v.6h7.941v3.905h-7.942v14.248h-4.37Zm10.678 0V17.31h4.404v18.152h-4.404Zm8.042 0V17.31h4.104v3.57l-.333-.634c.422-1.09 1.112-1.913 2.068-2.469.979-.578 2.114-.867 3.404-.867 1.335 0 2.514.289 3.537.867a6.118 6.118 0 0 1 2.436 2.436c.578 1.023.867 2.213.867 3.57v11.679h-4.371V24.818c0-.801-.156-1.49-.467-2.07a3.27 3.27 0 0 0-1.301-1.334c-.534-.334-1.168-.5-1.902-.5-.712 0-1.346.166-1.902.5-.556.312-.99.756-1.302 1.335-.311.578-.467 1.268-.467 2.069v10.644h-4.371Zm19.78 0V17.31h4.371v18.152h-4.371Zm0-20.188v-4.671h4.371v4.671h-4.371Zm6.772 20.188 6.339-9.11-6.373-9.042h5.139l4.972 7.34h-2.303l4.972-7.34h5.105l-6.34 9.043 6.307 9.109h-5.105l-4.905-7.308h2.235l-4.905 7.308h-5.138ZM174.895 19.281a3.869 3.869 0 0 1-1.578-.315 3.616 3.616 0 0 1-1.213-.886 3.401 3.401 0 0 1-.716-1.25l1.031-.424c.219.582.542 1.031.971 1.347.437.307.946.46 1.529.46.356 0 .667-.056.934-.17.267-.113.473-.27.619-.473.154-.21.23-.453.23-.727 0-.38-.109-.68-.327-.898-.21-.227-.522-.397-.934-.51l-1.663-.51c-.655-.202-1.156-.521-1.504-.958a2.347 2.347 0 0 1-.522-1.505c0-.493.117-.926.352-1.298.242-.38.574-.675.995-.886a3.161 3.161 0 0 1 1.456-.327c.542 0 1.031.097 1.468.29.445.195.821.458 1.128.79.308.323.534.695.68 1.116l-1.019.424c-.194-.51-.486-.893-.874-1.152-.388-.267-.845-.4-1.371-.4-.324 0-.611.056-.862.17a1.269 1.269 0 0 0-.57.472 1.325 1.325 0 0 0-.194.728c0 .332.105.627.316.886.21.259.529.457.958.595l1.517.449c.712.218 1.25.53 1.614.934.364.404.546.906.546 1.505 0 .493-.13.93-.389 1.31-.25.38-.602.68-1.055.898-.445.21-.963.315-1.553.315Zm9.057 0a4.734 4.734 0 0 1-1.796-.34 4.551 4.551 0 0 1-1.468-.982 4.609 4.609 0 0 1-.97-1.48 4.887 4.887 0 0 1-.352-1.87c0-.679.117-1.302.352-1.868.234-.566.558-1.06.97-1.48.421-.42.906-.744 1.456-.97a4.762 4.762 0 0 1 1.808-.34 4.53 4.53 0 0 1 1.796.351c.558.227 1.043.55 1.456.971.421.413.748.902.983 1.468.243.566.364 1.19.364 1.869 0 .671-.121 1.294-.364 1.869a4.514 4.514 0 0 1-.983 1.48c-.413.42-.898.748-1.456.983-.55.226-1.149.34-1.796.34Zm0-1.104c.502 0 .959-.089 1.371-.267a3.26 3.26 0 0 0 1.068-.764c.307-.332.542-.712.704-1.14.17-.438.255-.903.255-1.396 0-.494-.085-.955-.255-1.383a3.334 3.334 0 0 0-.704-1.129 3.04 3.04 0 0 0-1.068-.764 3.293 3.293 0 0 0-1.371-.28 3.27 3.27 0 0 0-1.359.28 3.18 3.18 0 0 0-1.08.764c-.299.324-.534.7-.703 1.129-.17.428-.255.89-.255 1.383s.085.958.255 1.395c.169.429.404.81.703 1.14.308.324.668.58 1.08.765.413.178.866.267 1.359.267Zm6.333.959v-9.04h5.727v1.092h-4.538v2.924h4.114v1.092h-4.114v3.932h-1.189Zm8.652 0v-7.948h-2.451v-1.092h6.066v1.092h-2.414v7.948h-1.201Z"/><path stroke="#000" stroke-width=".485" d="M162.592 9.563v25.481"/><defs><clipPath id="a"><path fill="#fff" d="M0 9.563h46.715v25.481H0z"/></clipPath></defs></svg>