<svg xmlns="http://www.w3.org/2000/svg" width="229" height="43" fill="none"><g clip-path="url(#a)"><path fill="#000" d="M34.096 10.031c-3.654 0-6.95 1.578-9.255 4.093l4.127 6.29c.89-1.966 2.853-3.335 5.128-3.335 3.11 0 5.638 2.554 5.638 5.693s-2.529 5.692-5.638 5.692c-2.102 0-3.84-1.226-4.906-2.894-5.43-8.49-4.611-7.297-6.368-10.067-.427-.674-.94-1.372-1.069-1.509-2.3-2.44-5.544-3.963-9.135-3.963C5.661 10.031 0 15.747 0 22.771c0 7.025 5.66 12.741 12.618 12.741 3.673 0 6.983-1.593 9.29-4.13l-4.099-6.389c-.859 2.039-2.862 3.471-5.19 3.471-3.11 0-5.639-2.553-5.639-5.692 0-3.14 2.53-5.693 5.638-5.693 2.074 0 3.833 1.172 4.87 2.827 4.259 6.796 4.654 7.323 6.498 10.213.475.744 1.243 1.713 1.494 1.95a12.507 12.507 0 0 0 8.616 3.443c6.958 0 12.619-5.716 12.619-12.74 0-7.025-5.661-12.74-12.619-12.74Z"/></g><path fill="#000" d="M59.127 35.93h4.538V11.07h-4.538v24.86Zm8.952 0h4.372V25.285c0-1.179.333-2.124 1-2.836.69-.712 1.58-1.068 2.67-1.068 1.09 0 1.969.356 2.636 1.068.69.69 1.034 1.635 1.034 2.836V35.93h4.372V24.25c0-1.357-.29-2.547-.868-3.57a6.111 6.111 0 0 0-2.436-2.436c-1.023-.579-2.202-.868-3.537-.868-1.134 0-2.157.223-3.07.668a4.779 4.779 0 0 0-2.068 1.968v-2.235h-4.105V35.93Zm21.882 0h4.371V21.682h6.34V35.93h4.371V17.778h-10.71v-.6c0-.913.266-1.58.8-2.003.556-.445 1.313-.667 2.27-.667.355 0 .733.033 1.134.1v-3.77a8.028 8.028 0 0 0-1.702-.168c-2.091 0-3.76.568-5.005 1.702-1.246 1.135-1.869 2.736-1.869 4.805v.6h-3.203v3.905h3.203V35.93Zm18.72 0h4.371V25.285c0-1.179.334-2.124 1.001-2.836.69-.712 1.58-1.068 2.67-1.068 1.09 0 1.968.356 2.636 1.068.689.69 1.034 1.635 1.034 2.836V35.93h4.371V24.25c0-1.357-.289-2.547-.867-3.57a6.12 6.12 0 0 0-2.436-2.436c-1.023-.579-2.202-.868-3.537-.868-1.135 0-2.158.223-3.07.668a4.782 4.782 0 0 0-2.069 1.968v-2.235h-4.104V35.93Zm19.78-20.188h4.371v-4.671h-4.371v4.671Zm0 20.188h4.371V17.778h-4.371V35.93Zm6.772 0h5.138l3.804-5.64 3.771 5.64h5.105l-6.307-9.11 6.34-9.042h-5.105l-3.804 5.639-3.837-5.64h-5.139l6.373 9.043-6.339 9.11ZM171.788 19.604h1.189v-3.92h4.526v3.92h1.202v-9.04h-1.202v4.028h-4.526v-4.028h-1.189v9.04Zm13.242.145c.648 0 1.246-.113 1.796-.34a4.539 4.539 0 0 0 1.468-.982c.421-.421.749-.915.983-1.48.235-.567.352-1.19.352-1.87 0-.67-.117-1.29-.352-1.856a4.336 4.336 0 0 0-.983-1.48c-.42-.42-.91-.744-1.468-.97a4.527 4.527 0 0 0-1.796-.353c-.639 0-1.237.118-1.795.352a4.396 4.396 0 0 0-2.439 2.44 4.828 4.828 0 0 0-.352 1.868c0 .68.117 1.302.352 1.868.234.566.562 1.06.983 1.48.42.421.906.749 1.456.983.558.227 1.156.34 1.795.34Zm0-1.104a3.313 3.313 0 0 1-1.759-.473 3.456 3.456 0 0 1-1.201-1.286 3.76 3.76 0 0 1-.437-1.808c0-.664.146-1.262.437-1.796a3.363 3.363 0 0 1 1.201-1.274c.51-.324 1.096-.485 1.759-.485.664 0 1.25.161 1.76.485.509.315.91.74 1.201 1.274a3.69 3.69 0 0 1 .437 1.796 3.76 3.76 0 0 1-.437 1.808 3.464 3.464 0 0 1-1.201 1.286c-.51.315-1.096.473-1.76.473Zm6.333.959h5.157v-1.092h-3.968v-7.948h-1.189v9.04Zm6.494 0h2.96c.914 0 1.711-.19 2.391-.57a3.978 3.978 0 0 0 1.577-1.59c.372-.68.558-1.468.558-2.366 0-.906-.186-1.695-.558-2.366a3.899 3.899 0 0 0-1.577-1.578c-.68-.38-1.477-.57-2.391-.57h-2.96v9.04Zm1.189-1.092v-6.856h1.784c.663 0 1.237.141 1.723.425a2.81 2.81 0 0 1 1.14 1.177c.275.51.413 1.116.413 1.82 0 .695-.134 1.302-.401 1.82a2.87 2.87 0 0 1-1.14 1.2c-.486.276-1.064.414-1.735.414h-1.784Zm7.804 1.091h1.19v-9.04h-1.19v9.04Zm3.2 0h1.189v-6.77l4.756 6.77h.995v-9.04h-1.201v6.674l-4.744-6.673h-.995v9.04Zm13.132.146c.558 0 1.088-.097 1.589-.291a3.952 3.952 0 0 0 2.221-2.136c.218-.51.327-1.08.327-1.71v-.801h-4.149v1.031h2.948v.049c0 .542-.133 1.019-.4 1.431a2.718 2.718 0 0 1-1.056.971c-.437.235-.93.352-1.48.352-.631 0-1.193-.15-1.687-.449a3.188 3.188 0 0 1-1.152-1.25c-.276-.534-.413-1.153-.413-1.856 0-.712.137-1.335.413-1.869.275-.534.655-.95 1.14-1.25.494-.299 1.056-.448 1.687-.448s1.173.153 1.626.46c.453.308.78.724.982 1.25l1.068-.521a3.082 3.082 0 0 0-.74-1.117 3.933 3.933 0 0 0-1.262-.85c-.493-.217-1.051-.327-1.674-.327-.639 0-1.23.118-1.772.352a4.213 4.213 0 0 0-1.407.97 4.49 4.49 0 0 0-.923 1.481 5.16 5.16 0 0 0-.327 1.869c0 .671.109 1.294.327 1.868.227.567.538 1.06.935 1.48a4.29 4.29 0 0 0 1.407.971c.542.227 1.133.34 1.772.34Zm-47.22 15c.558 0 1.088-.097 1.59-.291a3.958 3.958 0 0 0 2.22-2.136c.219-.51.328-1.08.328-1.71v-.801h-4.15v1.031h2.949v.049c0 .542-.134 1.019-.401 1.431-.259.413-.61.736-1.055.971a3.082 3.082 0 0 1-1.481.352c-.631 0-1.193-.15-1.686-.449-.486-.3-.87-.716-1.153-1.25-.275-.534-.412-1.152-.412-1.856 0-.712.137-1.335.412-1.869.275-.534.655-.95 1.141-1.25.493-.299 1.055-.448 1.686-.448s1.173.153 1.626.46c.453.308.781.724.983 1.25l1.068-.521a3.108 3.108 0 0 0-.74-1.117 3.944 3.944 0 0 0-1.262-.85c-.494-.218-1.052-.327-1.675-.327a4.41 4.41 0 0 0-1.771.352 4.227 4.227 0 0 0-1.408.97c-.396.422-.704.915-.922 1.481a5.16 5.16 0 0 0-.328 1.869c0 .671.11 1.294.328 1.868a4.67 4.67 0 0 0 .934 1.48c.397.413.866.737 1.408.971.542.227 1.132.34 1.771.34Zm5.744-.146h1.189v-3.458h1.99l1.954 3.458h1.383l-2.099-3.664c.55-.186.987-.501 1.31-.946.324-.453.486-1 .486-1.638 0-.575-.13-1.068-.389-1.48a2.496 2.496 0 0 0-1.055-.971c-.453-.227-.979-.34-1.578-.34h-3.191v9.04Zm1.189-4.55v-3.397h2.039c.534 0 .962.154 1.286.461.332.3.497.712.497 1.238 0 .517-.165.93-.497 1.237-.324.308-.752.461-1.286.461h-2.039Zm10.999 4.696c.647 0 1.245-.113 1.796-.34a4.528 4.528 0 0 0 2.451-2.463c.234-.566.351-1.189.351-1.868 0-.672-.117-1.29-.351-1.857a4.365 4.365 0 0 0-.983-1.48 4.392 4.392 0 0 0-1.468-.97 4.534 4.534 0 0 0-1.796-.353c-.639 0-1.238.118-1.796.352a4.382 4.382 0 0 0-1.468.97 4.47 4.47 0 0 0-.971 1.47 4.828 4.828 0 0 0-.352 1.868c0 .68.117 1.302.352 1.868.235.567.562 1.06.983 1.48.421.421.906.749 1.456.983a4.73 4.73 0 0 0 1.796.34Zm0-1.104a3.317 3.317 0 0 1-1.76-.473 3.464 3.464 0 0 1-1.201-1.286 3.76 3.76 0 0 1-.437-1.808c0-.664.146-1.262.437-1.796a3.371 3.371 0 0 1 1.201-1.274c.51-.324 1.096-.485 1.76-.485.663 0 1.25.161 1.759.485.51.315.91.74 1.201 1.274a3.68 3.68 0 0 1 .437 1.796 3.75 3.75 0 0 1-.437 1.808 3.456 3.456 0 0 1-1.201 1.286c-.509.315-1.096.473-1.759.473Zm9.609 1.104c.663 0 1.241-.137 1.735-.412a3.041 3.041 0 0 0 1.177-1.129 3.215 3.215 0 0 0 .425-1.65v-5.994h-1.202v5.97c0 .412-.093.78-.279 1.104a1.896 1.896 0 0 1-.752.74 2.212 2.212 0 0 1-1.104.267c-.421 0-.793-.089-1.117-.267a2.004 2.004 0 0 1-.752-.74 2.253 2.253 0 0 1-.267-1.104v-5.97h-1.201v5.994c0 .615.142 1.165.425 1.65.283.477.675.854 1.177 1.129.501.275 1.08.412 1.735.412Zm5.291-.146h1.189v-3.458h2.002c.598 0 1.124-.113 1.577-.34.453-.226.805-.55 1.056-.97.259-.42.388-.914.388-1.48 0-.575-.129-1.068-.388-1.48a2.504 2.504 0 0 0-1.056-.971c-.453-.227-.979-.34-1.577-.34h-3.191v9.04Zm1.189-4.55v-3.397h2.038c.542 0 .975.154 1.299.461.323.3.485.712.485 1.238 0 .517-.162.93-.485 1.237-.324.308-.757.461-1.299.461h-2.038Z"/><path stroke="#000" stroke-width=".485" d="M162.592 10.031v25.481"/><defs><clipPath id="a"><path fill="#fff" d="M0 10.031h46.715v25.481H0z"/></clipPath></defs></svg>