<svg xmlns="http://www.w3.org/2000/svg" width="15" height="28" fill="none"><path fill="#fff" d="M.452 14.913H3.52v12.635c0 .25.202.452.451.452h5.205c.249 0 .451-.202.451-.452V14.972h3.528c.23 0 .423-.172.45-.4l.535-4.652a.451.451 0 0 0-.448-.503H9.628V6.501c0-.879.474-1.325 1.407-1.325h2.658c.249 0 .451-.202.451-.451V.455a.452.452 0 0 0-.451-.452H10.03A3.587 3.587 0 0 0 9.863 0c-.636 0-2.844.125-4.59 1.73-1.932 1.778-1.664 3.908-1.6 4.277v3.41H.453A.452.452 0 0 0 0 9.87v4.592c0 .25.202.452.452.452Z"/></svg>