<svg xmlns="http://www.w3.org/2000/svg" width="33" height="32" fill="none"><g stroke="#C0C4D7" stroke-linecap="round" stroke-linejoin="round" stroke-width="2.667" clip-path="url(#a)"><path d="M21 2.666H7.667A6.667 6.667 0 0 0 1 9.333v13.333a6.667 6.667 0 0 0 6.667 6.667H21a6.667 6.667 0 0 0 6.667-6.667V9.333A6.667 6.667 0 0 0 21 2.666Z"/><path d="M19.666 15.16a5.333 5.333 0 1 1-10.552 1.565 5.333 5.333 0 0 1 10.552-1.565ZM21.666 8.666h.012"/></g><defs><clipPath id="a"><path fill="#fff" d="M.781 0h31.69v32H.78z"/></clipPath></defs></svg>