<svg xmlns="http://www.w3.org/2000/svg" width="226" height="42" fill="none"><g clip-path="url(#a)"><path fill="#fff" d="M33.99 8.692c-3.625 0-6.893 1.565-9.18 4.06l4.094 6.236c.881-1.949 2.829-3.306 5.085-3.306 3.083 0 5.591 2.532 5.591 5.645 0 3.113-2.508 5.645-5.59 5.645-2.086 0-3.81-1.217-4.867-2.87-5.384-8.42-4.572-7.236-6.315-9.984-.423-.668-.932-1.36-1.06-1.495-2.28-2.42-5.497-3.93-9.058-3.93C5.79 8.692.177 14.36.177 21.326c0 6.966 5.613 12.634 12.513 12.634 3.642 0 6.925-1.58 9.213-4.095l-4.065-6.336c-.852 2.021-2.839 3.442-5.148 3.442-3.083 0-5.591-2.532-5.591-5.645 0-3.113 2.508-5.645 5.59-5.645 2.057 0 3.801 1.162 4.83 2.803 4.223 6.74 4.616 7.262 6.443 10.128.472.738 1.233 1.699 1.482 1.934a12.403 12.403 0 0 0 8.545 3.414c6.9 0 12.513-5.668 12.513-12.634 0-6.967-5.613-12.635-12.513-12.635Z"/></g><path fill="#fff" d="M58.791 33.666V9.213h4.464v24.453h-4.464Zm8.807 0V15.811h4.037v3.512l-.328-.624c.415-1.072 1.094-1.882 2.035-2.429.963-.569 2.079-.853 3.348-.853 1.313 0 2.472.284 3.479.853a6.011 6.011 0 0 1 2.396 2.396c.569 1.007.853 2.178.853 3.512v11.488h-4.3v-10.47c0-.788-.153-1.466-.459-2.035a3.218 3.218 0 0 0-1.28-1.313c-.525-.328-1.149-.492-1.87-.492-.701 0-1.325.164-1.872.492a3.217 3.217 0 0 0-1.28 1.313c-.306.569-.46 1.247-.46 2.035v10.47h-4.3Zm21.524 0V19.651h-3.15v-3.84h3.15v-.591c0-1.357.274-2.506.82-3.446a5.594 5.594 0 0 1 2.364-2.2c1.007-.503 2.2-.754 3.578-.754.262 0 .547.021.853.065.328.022.602.055.82.099v3.709a3.18 3.18 0 0 0-.623-.066 3.977 3.977 0 0 0-.492-.033c-.963 0-1.707.219-2.232.657-.525.415-.788 1.072-.788 1.969v.59h7.812v3.841h-7.812v14.015h-4.3Zm10.504 0V15.811h4.332v17.855h-4.332Zm7.911 0V15.811h4.037v3.512l-.328-.624c.415-1.072 1.094-1.882 2.035-2.429.962-.569 2.078-.853 3.348-.853 1.312 0 2.472.284 3.479.853a6.015 6.015 0 0 1 2.396 2.396c.569 1.007.853 2.178.853 3.512v11.488h-4.3v-10.47c0-.788-.153-1.466-.459-2.035a3.215 3.215 0 0 0-1.28-1.313c-.525-.328-1.149-.492-1.871-.492-.7 0-1.324.164-1.871.492a3.215 3.215 0 0 0-1.28 1.313c-.306.569-.46 1.247-.46 2.035v10.47h-4.299Zm19.456 0V15.811h4.3v17.855h-4.3Zm0-19.857V9.213h4.3v4.596h-4.3Zm6.662 19.858 6.236-8.961-6.269-8.895h5.055l4.89 7.22h-2.265l4.891-7.22h5.022l-6.236 8.895 6.203 8.96h-5.022l-4.825-7.188h2.199l-4.825 7.188h-5.054ZM170.527 18.285V9.393h1.17v3.962h4.452V9.393h1.181v8.892h-1.181V14.43h-4.452v3.855h-1.17Zm13.026.143a4.649 4.649 0 0 1-1.766-.334 4.467 4.467 0 0 1-1.445-.967 4.537 4.537 0 0 1-.955-1.456 4.83 4.83 0 0 1-.346-1.838c0-.669.116-1.281.346-1.838a4.535 4.535 0 0 1 .955-1.456 4.342 4.342 0 0 1 1.433-.955 4.68 4.68 0 0 1 1.778-.335c.637 0 1.225.116 1.766.347a4.193 4.193 0 0 1 1.433.954c.413.406.736.888.967 1.445a4.63 4.63 0 0 1 .358 1.838c0 .66-.12 1.273-.358 1.838a4.455 4.455 0 0 1-.967 1.456 4.343 4.343 0 0 1-1.433.967 4.59 4.59 0 0 1-1.766.334Zm0-1.086c.493 0 .943-.088 1.349-.263a3.206 3.206 0 0 0 1.05-.752c.302-.326.533-.7.692-1.122.167-.43.251-.887.251-1.372 0-.486-.084-.94-.251-1.361a3.272 3.272 0 0 0-.692-1.11 2.99 2.99 0 0 0-1.05-.752 3.247 3.247 0 0 0-1.349-.274c-.485 0-.931.091-1.337.274a3.11 3.11 0 0 0-1.062.752 3.54 3.54 0 0 0-.692 1.11 3.663 3.663 0 0 0-.251 1.36c0 .486.084.944.251 1.373.167.422.398.796.692 1.122.302.318.656.57 1.062.752.406.175.852.263 1.337.263Zm6.23.943V9.393h1.169v7.817h3.903v1.075h-5.072Zm6.387 0V9.393h2.912c.899 0 1.683.183 2.352.549a3.834 3.834 0 0 1 1.551 1.551c.366.66.549 1.44.549 2.34 0 .89-.183 1.67-.549 2.34a3.913 3.913 0 0 1-1.551 1.563c-.669.366-1.453.549-2.352.549h-2.912Zm1.17-1.075h1.754c.661 0 1.23-.139 1.707-.417a2.844 2.844 0 0 0 1.122-1.17c.262-.51.394-1.106.394-1.79 0-.693-.135-1.29-.406-1.79a2.767 2.767 0 0 0-1.122-1.158c-.477-.279-1.042-.418-1.695-.418h-1.754v6.743Zm7.677 1.075V9.393h1.169v8.892h-1.169Zm3.147 0V9.393h.979l5.108 7.185-.442.048V9.393h1.182v8.892h-.979l-5.084-7.233.406-.048v7.28h-1.17Zm12.918.143c-.629 0-1.21-.111-1.743-.334a4.144 4.144 0 0 1-1.385-.967 4.58 4.58 0 0 1-.919-1.456 5.03 5.03 0 0 1-.322-1.826c0-.669.107-1.282.322-1.838a4.432 4.432 0 0 1 .907-1.457c.39-.413.852-.732 1.385-.954a4.34 4.34 0 0 1 1.743-.347c.612 0 1.161.108 1.647.323a3.87 3.87 0 0 1 1.241.835c.342.342.585.708.728 1.098l-1.05.513a2.653 2.653 0 0 0-.967-1.229c-.438-.302-.971-.453-1.599-.453-.621 0-1.174.147-1.659.441a3.044 3.044 0 0 0-1.122 1.23c-.271.525-.406 1.137-.406 1.838 0 .692.135 1.3.406 1.826.278.525.656.935 1.133 1.23.486.294 1.039.44 1.66.44a3.1 3.1 0 0 0 1.468-.345c.437-.231.783-.55 1.038-.955.255-.406.382-.876.382-1.409v-.549l.537.502h-3.437V13.57h4.082v.788c0 .62-.108 1.181-.323 1.683a3.875 3.875 0 0 1-.883 1.289c-.374.35-.808.62-1.301.811a4.288 4.288 0 0 1-1.563.287Zm-46.449 15c-.629 0-1.21-.111-1.743-.334a4.14 4.14 0 0 1-1.384-.967 4.58 4.58 0 0 1-.919-1.456 5.03 5.03 0 0 1-.323-1.826c0-.669.108-1.281.323-1.838a4.416 4.416 0 0 1 .907-1.457c.39-.413.851-.732 1.384-.954a4.34 4.34 0 0 1 1.743-.347c.613 0 1.162.108 1.647.323a3.87 3.87 0 0 1 1.241.835c.343.342.585.708.728 1.098l-1.05.514a2.653 2.653 0 0 0-.967-1.23c-.437-.302-.97-.453-1.599-.453-.621 0-1.174.147-1.659.441a3.044 3.044 0 0 0-1.122 1.23c-.271.525-.406 1.137-.406 1.838 0 .692.135 1.3.406 1.826.278.525.656.935 1.134 1.23.485.293 1.038.44 1.659.44a3.1 3.1 0 0 0 1.468-.345c.438-.231.784-.55 1.038-.955.255-.406.382-.875.382-1.409v-.549l.537.502h-3.437V28.57h4.082v.788c0 .62-.107 1.181-.322 1.683-.215.501-.51.93-.884 1.289-.374.35-.807.62-1.301.811a4.288 4.288 0 0 1-1.563.287Zm5.65-.143v-8.892h3.139c.589 0 1.106.111 1.552.334.445.223.791.54 1.038.955.255.414.382.899.382 1.456 0 .628-.159 1.162-.477 1.6a2.637 2.637 0 0 1-1.289.942l2.064 3.605h-1.36l-2.173-3.855.776.453h-2.482v3.402h-1.17Zm1.17-4.476h2.005c.35 0 .656-.068.919-.203.262-.135.465-.33.609-.585.151-.255.226-.549.226-.883 0-.342-.075-.637-.226-.883a1.447 1.447 0 0 0-.609-.585 1.981 1.981 0 0 0-.919-.203h-2.005v3.342Zm10.819 4.619a4.654 4.654 0 0 1-1.767-.334 4.474 4.474 0 0 1-1.444-.967 4.537 4.537 0 0 1-.955-1.456 4.81 4.81 0 0 1-.346-1.838c0-.669.115-1.281.346-1.838a4.535 4.535 0 0 1 .955-1.457 4.348 4.348 0 0 1 1.432-.954 4.686 4.686 0 0 1 1.779-.335c.636 0 1.225.116 1.766.347a4.19 4.19 0 0 1 1.432.954c.414.406.736.888.967 1.445.239.557.358 1.17.358 1.838a4.67 4.67 0 0 1-.358 1.838 4.44 4.44 0 0 1-.967 1.456 4.338 4.338 0 0 1-1.432.967 4.594 4.594 0 0 1-1.766.334Zm0-1.086a3.37 3.37 0 0 0 1.348-.263 3.22 3.22 0 0 0 1.051-.752c.302-.326.533-.7.692-1.122.167-.43.251-.887.251-1.372 0-.486-.084-.94-.251-1.361a3.272 3.272 0 0 0-.692-1.11 3.003 3.003 0 0 0-1.051-.752 3.242 3.242 0 0 0-1.348-.274c-.486 0-.931.091-1.337.274a3.11 3.11 0 0 0-1.062.752 3.525 3.525 0 0 0-.693 1.11c-.167.422-.25.875-.25 1.36 0 .486.083.944.25 1.373.167.422.398.796.693 1.122.302.318.656.57 1.062.752a3.34 3.34 0 0 0 1.337.263Zm9.452 1.086c-.645 0-1.218-.135-1.719-.406a2.996 2.996 0 0 1-1.158-1.11 3.24 3.24 0 0 1-.406-1.623v-5.896h1.182v5.872c0 .406.088.768.263 1.086.183.31.429.553.74.728a2.24 2.24 0 0 0 1.098.263c.413 0 .776-.088 1.086-.263.318-.175.565-.418.74-.728a2.14 2.14 0 0 0 .274-1.086v-5.872h1.182v5.896c0 .605-.139 1.146-.418 1.623-.27.47-.652.84-1.146 1.11-.493.27-1.066.406-1.718.406Zm5.204-.143v-8.892h3.139c.589 0 1.106.111 1.552.334.446.223.792.54 1.038.955.255.414.382.899.382 1.456 0 .557-.127 1.042-.382 1.456a2.558 2.558 0 0 1-1.038.955c-.438.223-.955.334-1.552.334h-1.969v3.402h-1.17Zm1.17-4.476h2.005c.358 0 .669-.068.931-.203.263-.135.466-.33.609-.585.143-.255.215-.549.215-.883 0-.342-.072-.637-.215-.883a1.436 1.436 0 0 0-.609-.585 2.006 2.006 0 0 0-.931-.203h-2.005v3.342Z"/><path stroke="#fff" stroke-width=".477" d="M161.415 8.692v25.269"/><defs><clipPath id="a"><path fill="#fff" d="M.176 8.692h46.326v25.27H.176z"/></clipPath></defs></svg>