<svg xmlns="http://www.w3.org/2000/svg" width="279" height="43" fill="none"><g clip-path="url(#a)"><path fill="#03D9C5" d="M34.096 9.602c-3.654 0-6.95 1.577-9.255 4.093l4.127 6.289c.89-1.966 2.853-3.335 5.128-3.335 3.11 0 5.638 2.554 5.638 5.693s-2.529 5.692-5.638 5.692c-2.102 0-3.84-1.226-4.906-2.893-5.43-8.492-4.611-7.297-6.368-10.068-.427-.674-.94-1.372-1.069-1.508-2.3-2.44-5.544-3.963-9.135-3.963C5.661 9.602 0 15.317 0 22.342s5.66 12.74 12.618 12.74c3.673 0 6.983-1.592 9.29-4.13l-4.099-6.389c-.859 2.039-2.862 3.471-5.19 3.471-3.11 0-5.639-2.553-5.639-5.692 0-3.14 2.53-5.693 5.638-5.693 2.074 0 3.833 1.173 4.87 2.828 4.259 6.796 4.654 7.323 6.498 10.212.475.744 1.243 1.713 1.494 1.95a12.507 12.507 0 0 0 8.616 3.443c6.958 0 12.619-5.715 12.619-12.74s-5.661-12.74-12.619-12.74Z"/></g><path fill="#000" d="M59.127 35.5h4.538V10.641h-4.538V35.5Zm8.952 0h4.372V24.856c0-1.18.333-2.125 1-2.837.69-.711 1.58-1.067 2.67-1.067 1.09 0 1.969.356 2.636 1.067.69.69 1.034 1.636 1.034 2.837V35.5h4.372V23.821c0-1.357-.29-2.547-.868-3.57a6.11 6.11 0 0 0-2.436-2.436c-1.023-.578-2.202-.867-3.537-.867-1.134 0-2.157.222-3.07.667a4.78 4.78 0 0 0-2.068 1.969v-2.236h-4.105V35.5Zm21.882 0h4.371V21.252h6.34V35.5h4.371V17.348h-10.71v-.6c0-.913.266-1.58.8-2.003.556-.445 1.313-.667 2.27-.667.355 0 .733.033 1.134.1v-3.77a8.028 8.028 0 0 0-1.702-.167c-2.091 0-3.76.567-5.005 1.702-1.246 1.134-1.869 2.736-1.869 4.804v.601h-3.203v3.904h3.203V35.5Zm18.72 0h4.371V24.856c0-1.18.334-2.125 1.001-2.837.69-.711 1.58-1.067 2.67-1.067 1.09 0 1.968.356 2.636 1.067.689.69 1.034 1.636 1.034 2.837V35.5h4.371V23.821c0-1.357-.289-2.547-.867-3.57a6.118 6.118 0 0 0-2.436-2.436c-1.023-.578-2.202-.867-3.537-.867-1.135 0-2.158.222-3.07.667a4.782 4.782 0 0 0-2.069 1.969v-2.236h-4.104V35.5Zm19.78-20.187h4.371V10.64h-4.371v4.672Zm0 20.187h4.371V17.348h-4.371V35.5Zm6.772 0h5.138l3.804-5.64 3.771 5.64h5.105l-6.307-9.11 6.34-9.042h-5.105l-3.804 5.64-3.837-5.64h-5.139l6.373 9.043-6.339 9.109ZM171.788 19.174h1.189v-6.77l4.757 6.77h.995v-9.04h-1.201v6.674l-4.745-6.674h-.995v9.04Zm8.958 0h1.19v-3.931h4.113V14.15h-4.113v-2.924h4.538v-1.092h-5.728v9.04Zm8.652 0h1.201v-7.948h2.415v-1.092h-6.067v1.092h2.451v7.948Zm9.237.145c.631 0 1.153-.133 1.566-.4.42-.267.768-.566 1.043-.898l1.092 1.153h1.493l-1.942-2.075 1.565-2.39h-1.298l-1.043 1.553-1.59-1.711c.154-.09.328-.206.522-.352s.38-.316.558-.51c.186-.194.336-.42.449-.68.121-.258.182-.55.182-.873 0-.42-.101-.788-.303-1.104a2.184 2.184 0 0 0-.813-.764 2.22 2.22 0 0 0-1.105-.28c-.404 0-.78.094-1.128.28a2.23 2.23 0 0 0-.825.776c-.202.324-.303.704-.303 1.14 0 .462.105.875.315 1.239.219.355.457.675.716.958-.129.08-.295.194-.497.34a3.718 3.718 0 0 0-.583.521c-.194.21-.36.462-.497.753-.13.291-.195.627-.195 1.007 0 .47.114.878.34 1.225.227.348.534.62.922.813.397.186.85.28 1.359.28Zm-.728-7.183a1.083 1.083 0 0 1 1.104-1.116c.316 0 .579.105.789.316.211.21.316.473.316.788 0 .259-.069.494-.207.704a2.253 2.253 0 0 1-.497.546 5.896 5.896 0 0 1-.619.412 6.33 6.33 0 0 1-.607-.764 1.59 1.59 0 0 1-.279-.886Zm-.655 4.842c0-.324.073-.599.219-.826a2.43 2.43 0 0 1 .509-.594c.202-.162.388-.291.558-.388l1.93 2.038a3.732 3.732 0 0 1-.728.74c-.276.21-.631.316-1.068.316-.421 0-.765-.113-1.032-.34-.258-.226-.388-.542-.388-.946Zm10.25 2.196h1.189v-6.868l2.949 4.198h.097l2.936-4.137v6.807h1.201v-9.04h-1.092l-3.082 4.417-3.106-4.417h-1.092v9.04Zm10.38 0h5.885v-1.092h-4.696v-2.9h4.453V14.09h-4.453v-2.864h4.696v-1.092h-5.885v9.04Zm8.936 0h1.201v-7.948h2.415v-1.092h-6.067v1.092h2.451v7.948Zm3.284 0h1.274l.74-2.124h3.859l.74 2.124h1.274l-3.24-9.04h-1.407l-3.24 9.04Zm2.39-3.216 1.553-4.477 1.554 4.477h-3.107Zm8.363 3.216h1.31l3.252-9.04h-1.274l-2.633 7.584-2.645-7.584h-1.274l3.264 9.04Zm5.702 0h5.885v-1.092h-4.695v-2.9h4.453V14.09h-4.453v-2.864h4.695v-1.092h-5.885v9.04Zm7.359 0h1.189v-3.458h1.99l1.953 3.458h1.384l-2.099-3.665c.55-.186.986-.501 1.31-.946.324-.453.485-.999.485-1.638 0-.574-.129-1.068-.388-1.48a2.504 2.504 0 0 0-1.056-.971c-.453-.226-.978-.34-1.577-.34h-3.191v9.04Zm1.189-4.55v-3.398h2.038c.534 0 .963.154 1.287.461.331.3.497.712.497 1.238 0 .518-.166.93-.497 1.238-.324.307-.753.46-1.287.46h-2.038Zm9.785 4.695c.591 0 1.108-.105 1.553-.315a2.566 2.566 0 0 0 1.056-.898c.259-.38.388-.817.388-1.31 0-1.181-.72-1.994-2.16-2.44l-1.516-.448c-.429-.138-.749-.336-.959-.595a1.4 1.4 0 0 1-.316-.886c0-.42.15-.752.449-.995.3-.25.692-.376 1.177-.376.526 0 .983.134 1.372.4.396.268.687.652.873 1.154l1.019-.425a2.968 2.968 0 0 0-.679-1.117 3.343 3.343 0 0 0-1.129-.788 3.574 3.574 0 0 0-1.468-.291c-.542 0-1.027.109-1.456.327-.42.21-.752.506-.995.886-.234.372-.352.805-.352 1.298 0 .566.174 1.068.522 1.505.348.437.849.756 1.505.958l1.662.51c.404.121.716.291.934.51.219.218.328.517.328.898 0 .42-.166.756-.498 1.007-.323.242-.752.364-1.286.364-.582 0-1.092-.154-1.529-.461-.436-.316-.76-.765-.97-1.347l-1.032.424c.146.462.385.878.716 1.25a3.744 3.744 0 0 0 2.791 1.201Zm4.738-.145h5.885v-1.092h-4.696v-2.9h4.453V14.09h-4.453v-2.864h4.696v-1.092h-5.885v9.04Zm-97.84 15h5.885v-1.092h-4.696v-2.9h4.454V29.09h-4.454v-2.864h4.696v-1.092h-5.885v9.04Zm6.485 0h1.347l2.269-3.531 2.257 3.53h1.359l-2.949-4.586 2.876-4.453h-1.359l-2.184 3.398-2.184-3.398h-1.359l2.876 4.453-2.949 4.587Zm8.374 0h1.189v-3.458h2.003c.598 0 1.124-.114 1.577-.34.453-.227.805-.55 1.056-.97.258-.421.388-.915.388-1.481 0-.574-.13-1.068-.388-1.48a2.504 2.504 0 0 0-1.056-.971c-.453-.227-.979-.34-1.577-.34h-3.192v9.04Zm1.189-4.55v-3.398h2.039c.542 0 .975.154 1.298.461.324.3.486.712.486 1.238 0 .518-.162.93-.486 1.238-.323.307-.756.46-1.298.46h-2.039Zm6.632 4.55h5.885v-1.092h-4.696v-2.9h4.453V29.09h-4.453v-2.864h4.696v-1.092h-5.885v9.04Zm7.358 0h1.189v-3.458h1.99l1.954 3.458h1.383l-2.099-3.665c.55-.186.987-.501 1.31-.946.324-.453.486-.999.486-1.638 0-.574-.13-1.068-.389-1.48a2.496 2.496 0 0 0-1.055-.971c-.453-.227-.979-.34-1.578-.34h-3.191v9.04Zm1.189-4.55v-3.398h2.039c.534 0 .962.154 1.286.461.332.3.498.712.498 1.238 0 .518-.166.93-.498 1.238-.324.307-.752.46-1.286.46h-2.039Zm6.679 4.55h1.189v-9.04h-1.189v9.04Zm3.2 0h5.884v-1.092h-4.695v-2.9h4.453V29.09h-4.453v-2.864h4.695v-1.092h-5.884v9.04Zm7.358 0h1.189v-6.77l4.756 6.77h.995v-9.04h-1.201v6.674l-4.744-6.674h-.995v9.04Zm13.12.145c.623 0 1.181-.109 1.674-.327a3.922 3.922 0 0 0 1.262-.85c.348-.347.595-.72.74-1.116l-1.092-.497c-.21.501-.538.91-.982 1.225-.445.308-.979.461-1.602.461-.631 0-1.193-.15-1.687-.449a3.104 3.104 0 0 1-1.14-1.25c-.275-.533-.413-1.152-.413-1.856 0-.712.138-1.335.413-1.869.275-.533.655-.95 1.14-1.25.494-.299 1.056-.448 1.687-.448.623 0 1.157.157 1.602.473.444.307.772.712.982 1.213l1.092-.497a3.082 3.082 0 0 0-.74-1.116 3.922 3.922 0 0 0-1.262-.85c-.493-.218-1.051-.327-1.674-.327-.639 0-1.23.117-1.772.351a4.223 4.223 0 0 0-1.407.971c-.396.42-.704.914-.922 1.48a5.139 5.139 0 0 0-.328 1.87c0 .67.109 1.293.328 1.868.218.566.526 1.06.922 1.48.404.413.874.736 1.407.97.542.227 1.133.34 1.772.34Zm5.294-.145h5.885v-1.092h-4.696v-2.9h4.453V29.09h-4.453v-2.864h4.696v-1.092h-5.885v9.04Z"/><path stroke="#000" stroke-width=".485" d="M162.592 9.602v25.48"/><defs><clipPath id="a"><path fill="#fff" d="M0 9.602h46.715v25.48H0z"/></clipPath></defs></svg>