<svg xmlns="http://www.w3.org/2000/svg" width="244" height="27" fill="none"><path fill="#C0C4D7" d="M33.96.826c-3.64 0-6.922 1.571-9.219 4.077l4.111 6.263c.885-1.957 2.841-3.32 5.107-3.32 3.097 0 5.616 2.543 5.616 5.67 0 3.126-2.519 5.67-5.616 5.67-2.093 0-3.825-1.223-4.886-2.883-5.408-8.457-4.593-7.268-6.343-10.027-.425-.671-.936-1.366-1.064-1.503-2.29-2.43-5.522-3.947-9.098-3.947C5.638.826 0 6.52 0 13.516c0 6.996 5.638 12.689 12.568 12.689 3.658 0 6.955-1.586 9.253-4.114l-4.083-6.363c-.856 2.03-2.85 3.457-5.17 3.457-3.097 0-5.616-2.543-5.616-5.67 0-3.126 2.52-5.67 5.616-5.67 2.065 0 3.817 1.168 4.849 2.817 4.242 6.768 4.637 7.293 6.472 10.171.474.741 1.238 1.707 1.488 1.943a12.457 12.457 0 0 0 8.582 3.429c6.93 0 12.568-5.693 12.568-12.69C46.527 6.52 40.89.826 33.96.826Z"/><path fill="#0D011C" d="M58.889 26.764V2.004h4.52v24.76h-4.52Zm8.916 0V8.684h4.088v3.557l-.332-.632c.42-1.085 1.108-1.905 2.06-2.46.975-.575 2.105-.863 3.39-.863 1.33 0 2.504.288 3.523.864a6.086 6.086 0 0 1 2.426 2.426c.576 1.019.864 2.204.864 3.556v11.632h-4.353V16.162c0-.797-.156-1.484-.466-2.06a3.258 3.258 0 0 0-1.296-1.33c-.532-.332-1.163-.498-1.894-.498-.71 0-1.34.166-1.895.498-.553.31-.986.754-1.296 1.33-.31.576-.465 1.262-.465 2.06v10.602h-4.354Zm21.794 0V12.573h-3.19V8.685h3.19v-.599c0-1.373.277-2.537.831-3.49a5.663 5.663 0 0 1 2.393-2.226c1.019-.51 2.227-.764 3.622-.764.266 0 .554.022.864.066.333.022.61.056.831.1v3.755a3.224 3.224 0 0 0-.631-.066 4.032 4.032 0 0 0-.499-.033c-.975 0-1.728.221-2.26.664-.531.421-.797 1.086-.797 1.994v.599h7.909v3.888h-7.91v14.19H89.6Zm10.635 0V8.684h4.387v18.08h-4.387Zm8.01 0V8.684h4.088v3.557l-.332-.632c.42-1.085 1.107-1.905 2.06-2.46.975-.575 2.105-.863 3.39-.863 1.329 0 2.503.288 3.523.864a6.088 6.088 0 0 1 2.426 2.426c.576 1.019.864 2.204.864 3.556v11.632h-4.354V16.162c0-.797-.155-1.484-.465-2.06a3.256 3.256 0 0 0-1.296-1.33c-.532-.332-1.163-.498-1.895-.498-.709 0-1.34.166-1.894.498-.554.31-.986.754-1.296 1.33-.31.576-.465 1.262-.465 2.06v10.602h-4.354Zm19.7 0V8.684h4.354v18.08h-4.354Zm0-20.107V2.005h4.354v4.652h-4.354Zm6.745 20.107 6.314-9.073-6.347-9.006h5.118l4.952 7.31h-2.293l4.951-7.31h5.085l-6.314 9.006 6.281 9.073h-5.085l-4.885-7.279h2.226l-4.885 7.279h-5.118ZM175.401 10.555a4.715 4.715 0 0 1-1.789-.338 4.537 4.537 0 0 1-1.462-.98 4.596 4.596 0 0 1-.967-1.473 4.887 4.887 0 0 1-.35-1.862c0-.676.117-1.297.35-1.86a4.596 4.596 0 0 1 .967-1.475 4.4 4.4 0 0 1 1.45-.967 4.743 4.743 0 0 1 1.801-.338c.645 0 1.241.117 1.789.35a4.24 4.24 0 0 1 1.45.967c.419.411.745.898.979 1.462.241.564.362 1.185.362 1.861 0 .67-.121 1.29-.362 1.862a4.499 4.499 0 0 1-.979 1.474 4.39 4.39 0 0 1-1.45.979 4.653 4.653 0 0 1-1.789.338Zm0-1.1c.5 0 .955-.088 1.366-.265a3.25 3.25 0 0 0 1.063-.762c.306-.33.54-.709.701-1.136.169-.435.254-.898.254-1.39 0-.491-.085-.95-.254-1.377a3.31 3.31 0 0 0-.701-1.124 3.031 3.031 0 0 0-1.063-.761 3.285 3.285 0 0 0-1.366-.278c-.491 0-.943.092-1.354.278a3.16 3.16 0 0 0-1.075.76 3.578 3.578 0 0 0-.701 1.125 3.71 3.71 0 0 0-.254 1.377c0 .492.085.955.254 1.39.169.427.403.806.701 1.136.306.322.665.576 1.075.762.411.177.863.265 1.354.265Zm2.429 2.043-3.069-4.69h1.305l3.081 4.69h-1.317Zm7.141-.943c-.652 0-1.232-.137-1.74-.41a3.029 3.029 0 0 1-1.172-1.125c-.274-.483-.411-1.03-.411-1.643v-5.97h1.197v5.946c0 .41.088.777.265 1.1.186.314.435.56.75.737.322.177.693.265 1.111.265.419 0 .786-.088 1.1-.265.322-.178.572-.423.749-.738a2.16 2.16 0 0 0 .278-1.1V1.408h1.197v5.97a3.2 3.2 0 0 1-.423 1.643c-.274.476-.661.85-1.16 1.124-.5.274-1.08.411-1.741.411Zm4.164-.145 3.227-9.003h1.402l3.226 9.003h-1.269l-.737-2.115h-3.843l-.737 2.115h-1.269Zm2.381-3.202h3.094l-1.717-4.943h.339l-1.716 4.943Zm6.609 3.202V1.407h1.184v7.916h3.952v1.087h-5.136Zm6.467 0V1.407h1.184v9.003h-1.184Zm4.758 0V2.494h-2.442V1.407h6.043v1.087h-2.405v7.916h-1.196Zm6.99 0V6.29l-3.118-4.883h1.342l2.61 4.097h-.483l2.598-4.097h1.341l-3.093 4.882v4.121h-1.197Zm-46.111 15 3.226-9.003h1.402l3.227 9.003h-1.269l-.737-2.115h-3.843l-.737 2.115h-1.269Zm2.38-3.202h3.094l-1.716-4.943h.338l-1.716 4.943Zm9.585 3.347a3.853 3.853 0 0 1-1.571-.314 3.606 3.606 0 0 1-1.208-.882 3.377 3.377 0 0 1-.713-1.245l1.027-.423c.217.58.54 1.027.967 1.341.435.307.942.46 1.522.46.355 0 .665-.057.931-.17.266-.112.471-.27.616-.47.153-.21.23-.452.23-.726 0-.379-.109-.677-.327-.894-.209-.226-.519-.395-.93-.508l-1.656-.507c-.652-.202-1.152-.52-1.498-.955a2.336 2.336 0 0 1-.52-1.499c0-.491.117-.922.351-1.293.241-.378.572-.672.991-.882.427-.217.91-.326 1.45-.326.54 0 1.027.096 1.462.29a3.32 3.32 0 0 1 1.124.785c.306.323.532.693.677 1.112l-1.015.423c-.194-.507-.484-.89-.871-1.148-.386-.266-.842-.399-1.365-.399-.322 0-.608.057-.858.17a1.257 1.257 0 0 0-.568.47 1.316 1.316 0 0 0-.194.726c0 .33.105.624.315.882.209.258.527.455.954.592l1.511.447c.709.218 1.245.528 1.607.931.363.403.544.902.544 1.498 0 .492-.129.927-.387 1.306a2.55 2.55 0 0 1-1.051.894c-.443.21-.959.314-1.547.314Zm7.813 0a3.853 3.853 0 0 1-1.571-.314 3.61 3.61 0 0 1-1.209-.882 3.391 3.391 0 0 1-.713-1.245l1.028-.423c.217.58.539 1.027.966 1.341.435.307.943.46 1.523.46.355 0 .665-.057.931-.17.265-.112.471-.27.616-.47.153-.21.23-.452.23-.726 0-.379-.109-.677-.327-.894-.209-.226-.519-.395-.93-.508l-1.656-.507c-.653-.202-1.152-.52-1.499-.955a2.34 2.34 0 0 1-.519-1.499c0-.491.117-.922.35-1.293a2.45 2.45 0 0 1 .991-.882 3.151 3.151 0 0 1 1.45-.326c.54 0 1.028.096 1.463.29a3.32 3.32 0 0 1 1.124.785c.306.323.531.693.676 1.112l-1.015.423c-.193-.507-.483-.89-.87-1.148-.387-.266-.842-.399-1.365-.399a2.06 2.06 0 0 0-.858.17 1.252 1.252 0 0 0-.568.47 1.316 1.316 0 0 0-.194.726c0 .33.105.624.314.882.21.258.528.455.955.592l1.511.447c.709.218 1.244.528 1.607.931s.544.902.544 1.498c0 .492-.129.927-.387 1.306-.25.378-.6.676-1.051.894-.443.21-.959.314-1.547.314Zm7.982 0c-.653 0-1.233-.137-1.74-.41a3.025 3.025 0 0 1-1.173-1.125c-.274-.483-.411-1.03-.411-1.643v-5.97h1.197v5.946c0 .41.088.777.266 1.1.185.314.435.56.749.737a2.27 2.27 0 0 0 1.112.265c.419 0 .785-.088 1.1-.265.322-.178.572-.423.749-.738a2.17 2.17 0 0 0 .278-1.1v-5.945h1.196v5.97c0 .612-.141 1.16-.423 1.643-.274.476-.66.85-1.16 1.124-.499.274-1.08.411-1.74.411Zm5.27-.145v-9.003h3.178c.596 0 1.12.113 1.571.338.451.226.802.548 1.051.967.258.419.387.91.387 1.474 0 .637-.161 1.177-.483 1.62a2.671 2.671 0 0 1-1.306.954l2.091 3.65h-1.378l-2.199-3.903.786.459h-2.514v3.444h-1.184Zm1.184-4.532h2.03c.355 0 .665-.068.931-.205.266-.137.471-.334.616-.592a1.72 1.72 0 0 0 .23-.895 1.68 1.68 0 0 0-.23-.894 1.456 1.456 0 0 0-.616-.592 2.007 2.007 0 0 0-.931-.206h-2.03v3.384Zm5.782 4.532 3.226-9.003h1.402l3.227 9.003h-1.269l-.737-2.115h-3.843l-.737 2.115h-1.269Zm2.38-3.202h3.094l-1.716-4.943h.339l-1.717 4.943Zm6.609 3.202v-9.003h.991l5.173 7.275-.447.048v-7.323h1.196v9.003h-.991l-5.148-7.323.411-.049v7.372h-1.185Zm13.068.145a4.532 4.532 0 0 1-1.765-.338 4.368 4.368 0 0 1-1.402-.98c-.394-.418-.7-.91-.918-1.473a5.086 5.086 0 0 1-.326-1.85c0-.676.108-1.297.326-1.86a4.489 4.489 0 0 1 .918-1.475 4.057 4.057 0 0 1 1.402-.967 4.395 4.395 0 0 1 1.765-.35c.62 0 1.176.109 1.667.326.5.218.919.5 1.257.846.347.346.592.717.737 1.112l-1.087.495a2.72 2.72 0 0 0-.979-1.208c-.443-.314-.975-.471-1.595-.471-.629 0-1.189.149-1.68.447a3.093 3.093 0 0 0-1.136 1.244c-.274.532-.411 1.153-.411 1.861 0 .701.137 1.318.411 1.85.274.531.653.946 1.136 1.244.491.298 1.051.447 1.68.447.62 0 1.152-.153 1.595-.459.443-.314.769-.72.979-1.22l1.087.495c-.145.395-.39.765-.737 1.112a3.909 3.909 0 0 1-1.257.846c-.491.217-1.047.326-1.667.326Zm5.272-.145v-9.003h5.862v1.087h-4.677v2.852h4.435v1.088h-4.435v2.889h4.677v1.087h-5.862Z"/><path stroke="#0D011C" stroke-width=".483" d="M161.939.828v25.379"/></svg>