<svg xmlns="http://www.w3.org/2000/svg" width="268" height="306" fill="none"><path fill="#000" d="M74.254 28.448c0-9.737 8.624-17.216 18.263-15.839l99.547 14.221a16 16 0 0 1 13.737 15.84v192.009c0 9.737-8.623 17.216-18.262 15.839l-99.548-14.221a16 16 0 0 1-13.737-15.839V28.448Z"/><path fill="#DFD6FF" d="M53.7 34.32c0-9.736 8.624-17.215 18.263-15.838l99.547 14.22a16 16 0 0 1 13.737 15.84v192.01c0 9.737-8.624 17.216-18.263 15.839L67.437 242.17A16 16 0 0 1 53.7 226.331V34.321Z"/><path fill="#F2F2F2" d="m25.558 132.295-.02 5.901-5.763-3.318.02-5.901 5.763 3.318Z"/><path fill="#000" d="m25.558 132.296 5.38-3.115-.02 5.894-5.38 3.121.02-5.9Z"/><path fill="#CBCBCB" d="m19.795 128.977 5.38-3.121 5.764 3.325-5.381 3.115-5.763-3.319Z"/><path fill="#F2F2F2" d="m37.216 127.17.013 5.269 5.15-2.969-.02-5.263-5.143 2.963Z"/><path fill="#000" d="m37.216 127.17-4.808-2.786.013 5.263 4.808 2.792-.013-5.269Z"/><path fill="#CBCBCB" d="m42.36 124.207-4.802-2.786-5.15 2.963 4.808 2.786 5.143-2.963Z"/><path fill="#F2F2F2" d="m35.816 100.341.026 9.587 9.366-5.394-.027-9.587-9.365 5.394Z"/><path fill="#000" d="m35.816 100.342-8.747-5.073.027 9.587 8.746 5.072-.026-9.586Z"/><path fill="#815DFF" d="m45.181 94.947-8.746-5.073-9.366 5.395 8.747 5.072 9.365-5.394Z"/><path fill="#FDD9D4" d="m19.307 114.66-.032 10.52L9 119.26l.026-10.52 10.281 5.92Z"/><path fill="#000" d="m19.307 114.66 9.596-5.565-.026 10.519-9.603 5.566.033-10.52Z"/><path fill="#CBCBCB" d="m9.026 108.74 9.603-5.565 10.274 5.92-9.596 5.565-10.28-5.92Z"/><g opacity=".15"><path fill="#2F2F2F" d="m70.39 106.515-1.701-3.434 3.52-1.973-.454-.947 4.846-2.724-.673-1.361 3.56-1.954-1.068-.157-2.334 1.322-12.421-1.954-1.741-3.394 3.56-2.013-.395-.73 4.905-2.743-.118-.256 10.305-5.782 2.848.454.158-.08 3.304.534 1.74-.987 2.512.414.1-.059 12.362 1.914.237.494 2.967.473.336.632 1.741 3.413.297.652-2.077 1.164 1.028 2.111-1.898 1.066.731 1.42-4.114 2.31.91 1.815-2.116 1.204.85 1.578-10.424 5.802-.455-.059-4.51 2.525-1.384-.217-2.572 1.441-12.362-1.914Z" opacity=".6"/></g><path fill="#46661A" d="m92.741 95.898 10.444-5.703v-2.683l-10.444 5.683v2.703Z"/><path fill="#638E25" d="m75.572 60.142 10.444-5.683-.395-.217-10.444 5.683.395.217ZM95.946 92.465l10.443-5.684-1.246-.67-10.444 5.683 1.247.67Z"/><path fill="#46661A" d="m95.926 94.931 10.444-5.702.02-2.447-10.444 5.683-.02 2.466Z"/><path fill="#638E25" d="m86.65 75.988 10.443-5.703-1.345-.71-10.444 5.683 1.345.73Z"/><path fill="#46661A" d="m94.7 91.794 10.443-5.683V82.48l-10.444 5.683v3.631Z"/><path fill="#638E25" d="m94.7 86.742 10.443-5.703-3.362-1.815-10.444 5.683 3.363 1.835Z"/><path fill="#46661A" d="m91.337 84.907 10.444-5.683v-3.63l-10.444 5.682v3.631Z"/><path fill="#628C26" d="M94.7 88.163v3.631l3.362 1.835.02-3.63-3.382-1.836Z"/><path fill="#7D9B35" d="m98.082 89.998 10.444-5.703-3.383-1.815-10.444 5.683 3.383 1.835Z"/><path fill="#728E31" d="m98.062 93.63 10.444-5.704.02-3.63-10.444 5.702-.02 3.631Z"/><path fill="#638E25" d="m76.74 54.518 10.443-5.703-1.147-.611-10.444 5.683 1.148.631ZM91.812 78.79l10.443-5.703-5.162-2.802-10.444 5.703 5.163 2.802Z"/><path fill="#7D9B35" d="m94.72 83.112 10.443-5.703-3.382-1.816-10.444 5.683 3.382 1.836Z"/><path fill="#728E31" d="m94.7 86.742 10.443-5.703.02-3.63-10.444 5.702-.02 3.631Z"/><path fill="#628C26" d="M91.337 81.276v3.631l3.363 1.835.02-3.63-3.383-1.836Z"/><path fill="#46661A" d="m98.062 93.629 10.444-5.703.059-5.249-10.443 5.703-.06 5.249Z"/><path fill="#638E25" d="m98.122 88.38 10.443-5.703-.573-.296-10.444 5.683.574.316ZM93.157 79.5l10.444-5.683-1.345-.73-10.444 5.703 1.345.71Z"/><path fill="#46661A" d="m85.304 75.258 10.444-5.683.04-9.827-10.444 5.683-.04 9.827Z"/><path fill="#638E25" d="m85.344 65.43 10.443-5.683-2.057-1.105-10.444 5.684 2.058 1.105Z"/><path fill="#46661A" d="m97.548 88.064 10.444-5.683.02-3.65-10.444 5.702-.02 3.631Z"/><path fill="#3E5617" d="m100.911 89.9 10.443-5.703.02-2.743-10.444 5.703-.019 2.743Z"/><path fill="#46661A" d="m83.286 64.326 10.444-5.683.02-6.255-10.444 5.683-.02 6.255Z"/><path fill="#638E25" d="m83.306 58.07 10.444-5.683-1.384-.75-10.444 5.683 1.385.75Z"/><path fill="#7D9B35" d="m100.93 86.249 10.444-5.683-3.362-1.835-10.444 5.702 3.362 1.816Z"/><path fill="#728E31" d="m100.93 87.156 10.444-5.703v-.888L100.93 86.25v.907Z"/><path fill="#638E25" d="m81.941 52.782 10.444-5.683-5.182-2.803-10.444 5.684 5.182 2.802Z"/><path fill="#46661A" d="m81.922 57.32 10.444-5.683.02-4.539-10.444 5.684-.02 4.538Z"/><path fill="#638E25" d="m95.234 70.798 10.444-5.703-2.058-1.105-10.443 5.703 2.057 1.105ZM96.638 65.293l10.444-5.683-1.385-.77-10.443 5.703 1.384.75Z"/><path fill="#9EC769" d="m77.57 77.25 2.73 1.48-.02 5.27 2.156 1.164v2.447l3.185 1.716v2.704l.969.533 5.162 2.802.97.532v-2.703l3.184 1.717v-2.447l-1.246-.67.02-3.632 3.382 1.835-.02 3.631.06-5.249-.574-.316.02-3.63 3.363 1.815v.888l2.373 1.283.04-13.26-.396-.218.02-6.255-1.147-.612.019-4.539-5.182-2.802-.02 4.539-1.384-.75-.02 6.255-2.057-1.105V79.5l-1.325-.73-5.163-2.802-1.325-.73.04-9.827-2.058-1.105.02-6.255-1.385-.75.02-4.539L76.8 49.96l-.02 4.539-1.147-.632-.02 6.256-.396-.218-.04 13.261 2.453 1.322-.059 2.763Zm13.767 7.657.02-3.63 3.362 1.835-.02 3.63-3.362-1.835Z"/><path fill="#628C26" d="m97.568 84.434-.02 3.63 3.303 1.796.06.04.019-2.743v-.908l-3.362-1.815Z"/><path fill="#46661A" d="m103.304 88.44 10.444-5.684.039-13.26-10.444 5.683-.039 13.26Z"/><path fill="#638E25" d="m103.343 75.178 10.444-5.683-.395-.217-10.444 5.703.395.198Z"/><path fill="#46661A" d="m102.948 74.981 10.444-5.703.02-6.255-10.444 5.703-.02 6.255Z"/><path fill="#638E25" d="m102.968 68.726 10.444-5.703-1.148-.612-10.443 5.683 1.147.632Z"/><path fill="#46661A" d="m101.821 68.094 10.443-5.683.02-4.538-10.444 5.702-.019 4.52Z"/><path fill="#638E25" d="m101.84 63.575 10.444-5.702-5.182-2.802-10.444 5.683 5.182 2.822Z"/><path fill="#2F2F2F" d="M206.16 249.908c.251-4.603-2.3-9.193-8.428-12.47a28.772 28.772 0 0 0-3.359-1.523c-4.94-1.888-11.55-2.647-17.365-1.584-4.899.901-8.041 2.83-10.613 5.132-1.717 1.543-2.144 3.229-1.825 4.942a5.76 5.76 0 0 1-.116-1.009l-.02 6.946c-.014 3.29 3.203 6.763 5.91 9.525 1.581 1.624 3.285 3.222 4.784 4.867 1.011 1.103 1.948 2.241 2.701 3.412 1.065 1.659 1.812 4.59 4.492 6.025.258.135.536.264.828.372.082.034.177.055.265.082.047.013.095.033.142.047.068.02.136.047.204.061.163.041.339.081.516.115.156.027.325.054.488.081.041.007.082.014.122.014.109.013.217.02.333.034.156.013.312.02.468.02.183.007.367 0 .543 0 .156-.007.312-.02.461-.027.034 0 .061-.007.095-.007.041-.007.089-.007.129-.007.346-.034.692-.081 1.032-.135a16.011 16.011 0 0 0 1.988-.467c.448-.136.787-.345 1.194-.508.55-.217 1.113-.426 1.609-.684.156-.081.352-.128.502-.21.536-.297 1.018-.643 1.499-.981.15-.108.319-.196.469-.305a35.761 35.761 0 0 0 1.988-1.584c.108-.095.217-.189.332-.284.801-.697 1.588-1.402 2.403-2.072.115-.095.23-.189.339-.284.258-.217.488-.447.726-.67.136-.129.278-.244.407-.373.414-.406.801-.819 1.16-1.245.007-.007.007-.007.007-.014.021-.02.034-.047.054-.067.333-.393.632-.793.917-1.199.095-.135.176-.271.271-.399.115-.169.238-.339.346-.515.088-.142.163-.291.244-.44a14.685 14.685 0 0 0 .815-1.651c.006-.021.013-.034.02-.055l.007-.006c.176-.44.319-.88.448-1.327.034-.122.068-.244.095-.366.034-.142.081-.284.108-.426.055-.237.082-.474.122-.711.014-.081.034-.163.041-.244.048-.379.088-.765.095-1.144.007-.108.007-.21.007-.318l.02-6.946c.021.19-.013.386-.02.582Zm-4.601 2.756c-.007-.738-.156-1.469-.38-2.201.224.725.373 1.456.38 2.201Zm-.488-2.559a13.662 13.662 0 0 0-.699-1.666c-.075-.149-.163-.291-.245-.44.082.149.17.291.245.44.271.549.502 1.104.699 1.666Zm-1.174-2.525Zm-34.771-1.422Zm2.287 3.54Zm-1.364-1.868Zm3.054 3.778c.42.453.848.893 1.255 1.313-.407-.42-.835-.86-1.255-1.313Zm-1.419-1.598Zm34.92 8.184c-.244.285-.516.562-.78.84.285-.298.577-.596.834-.907-.02.02-.034.047-.054.067Zm.482-.629c.197-.251.394-.501.57-.758l-.081.122c-.15.216-.326.426-.489.636Zm1.038-1.489c.156-.258.319-.515.462-.772l-.15.271c-.101.169-.21.331-.312.501Zm1.127-2.16c-.089.217-.204.426-.306.636.129-.277.265-.562.38-.846-.02.054-.034.102-.054.156a.959.959 0 0 1-.02.054Zm.475-1.388c-.048.169-.116.332-.17.494.095-.277.183-.555.258-.839a4.125 4.125 0 0 1-.088.345Zm.325-1.496c-.02.149-.061.291-.088.44.054-.284.109-.562.143-.846-.007.054-.007.115-.014.169-.007.075-.027.156-.041.237Z" opacity=".3"/><path fill="#773E2D" d="M189.717 227.137ZM189.718 227.137ZM196.157 238.171c-.033-.121-.067-.25-.108-.372.041.122.075.244.108.372Z"/><path fill="#903D27" d="M195.94 247.913c.021-.02.048-.04.068-.067l.143-.142c-.068.074-.143.142-.211.209Z"/><path fill="#943F28" d="M195.221 248.611c.244-.231.488-.461.719-.698v-.007a14.52 14.52 0 0 1-.719.705Z"/><path fill="#99412A" d="M194.99 248.841c.082-.075.156-.156.238-.23-.088.074-.156.155-.238.23Z"/><path fill="#9E432B" d="M192.493 251.163c.068-.061.129-.122.197-.183-.061.061-.136.108-.197.169v.014Z"/><path fill="#A2452C" d="M190.464 252.909a34.557 34.557 0 0 0 1.907-1.638c.04-.041.081-.075.122-.115v-.014a31.931 31.931 0 0 1-2.029 1.767ZM189.351 253.695c.224-.156.448-.305.658-.467-.203.155-.447.277-.658.426v.041Z"/><path fill="#A7472D" d="M185.945 255.441c.217-.081.393-.189.604-.277-.19.081-.408.142-.604.216v.061ZM188.096 254.46c.149-.082.339-.136.481-.217.279-.169.516-.366.781-.548v-.041c-.414.278-.821.555-1.262.806Z"/><path fill="#A2452C" d="M184.438 255.922v.027c.333-.081.659-.169.971-.264.203-.068.346-.176.543-.244v-.061c-.503.183-.964.4-1.514.542Z"/><path fill="#9E432B" d="m183.672 256.132.413-.081c-.135.027-.278.04-.413.067v.014ZM184.078 256.05c.123-.027.231-.067.353-.094v-.028c-.129.028-.217.088-.353.122Z"/><path fill="#99412A" d="M183.108 256.199v.021c.129-.021.258-.034.387-.055.061-.013.115-.027.176-.033v-.021c-.183.034-.373.061-.563.088Z"/><path fill="#943F28" d="M182.66 256.267v.014l.448-.061v-.021a4.572 4.572 0 0 1-.448.068Z"/><path fill="#903D27" d="M182.382 256.315c.041-.007.082-.007.122-.007l.15-.021v-.013c-.089.007-.177.034-.272.041Z"/><path fill="#8B3B26" d="M181.88 256.315v.033c.129-.006.251-.013.38-.027-.129.007-.251-.013-.38-.006Z"/><path fill="#873925" d="M181.507 256.308v.04h.373v-.034c-.122.007-.251-.006-.373-.006Z"/><path fill="#823723" d="M181.107 256.301v.041c.074.006.142.006.217.013h.183v-.04c-.136-.007-.265-.007-.4-.014Z"/><path fill="#7D3522" d="M180.611 256.294c.088.014.177.027.265.034.074.007.156.007.237.014v-.041c-.169-.007-.339.013-.502-.007Z"/><path fill="#793321" d="M180.557 256.294c.021 0 .042.007.055.007v-.007h-.055ZM178.88 255.881c.19.075.387.142.591.197.163.047.326.088.495.121.15.034.312.061.468.082.041.006.082.013.123.013-.978-.122-1.792-.406-2.47-.799.244.143.508.271.793.386Z"/><path fill="#A0533D" d="M200.934 237.596c-.013.244-.02.494-.047.738-.007.061-.007.115-.014.176l-.04.251c-.021.148-.061.304-.089.453-.047.251-.081.494-.142.745-.027.115-.054.237-.088.352-.048.169-.109.338-.163.514-.075.237-.136.474-.224.711-.02.054-.034.108-.048.163-.006.02-.013.033-.02.054-.081.223-.19.44-.292.656-.115.258-.217.515-.346.772l-.142.285c-.089.169-.197.338-.292.507-.149.257-.292.515-.448.765-.027.041-.047.081-.075.129-.142.216-.305.433-.461.65-.143.196-.272.399-.421.589-.02.02-.034.047-.054.067-.231.298-.495.576-.747.867-.203.23-.407.46-.624.684l-.142.142a25.028 25.028 0 0 1-.787.765c-.082.074-.157.156-.238.23l-.02 7.183c.108-.095.217-.197.325-.298.245-.224.469-.461.699-.697.129-.129.265-.258.387-.386.394-.42.767-.853 1.113-1.293 0-.007.007-.007.007-.007.02-.027.034-.054.054-.075.319-.406.604-.819.882-1.238.088-.136.17-.278.258-.413.109-.176.231-.352.333-.535.081-.149.156-.305.23-.454.068-.128.136-.257.204-.392.21-.434.414-.874.583-1.321.007-.02.014-.033.021-.054 0-.006 0-.006.007-.006.169-.454.312-.914.427-1.375.034-.128.061-.25.095-.379.034-.149.075-.291.109-.44.047-.244.081-.487.115-.738l.041-.25c.047-.393.081-.792.095-1.185 0-.108.007-.217.007-.332l.02-7.182c-.007.203-.034.399-.048.602ZM194.99 248.841c-.237.21-.468.44-.705.656l-.021 7.163c.231-.217.468-.427.706-.636l.02-7.183Z"/><path fill="#9B513B" d="M194.278 249.497c-.53.495-1.059.982-1.595 1.483-.068.061-.129.122-.197.183-.041.04-.081.074-.122.115l-.02 7.162c.101-.095.21-.176.312-.271.536-.501 1.065-1.008 1.601-1.503l.021-7.169Z"/><path fill="#A0533D" d="M192.371 251.271a34.557 34.557 0 0 1-1.907 1.638c-.143.115-.305.21-.455.318-.217.163-.441.312-.658.468-.265.182-.502.379-.78.548l-.021 7.095c.489-.298.998-.589 1.439-.928.142-.108.305-.203.448-.318a30.02 30.02 0 0 0 1.907-1.659l.027-7.162Z"/><path fill="#A4563F" d="M188.571 254.243c-.143.088-.333.135-.482.217-.475.264-1.011.48-1.541.704-.21.088-.386.196-.603.277-.197.075-.34.183-.543.244l-.021 7.067c.394-.128.781-.257 1.147-.412.529-.224 1.065-.441 1.54-.705.17-.094.319-.209.482-.304l.021-7.088Z"/><path fill="#A0533D" d="M185.402 255.685c-.312.102-.638.183-.971.264-.122.034-.23.068-.353.095a43.82 43.82 0 0 1-.413.081c-.062.014-.116.027-.177.034l-.02 7.156c.197-.034.4-.048.59-.095.496-.115.869-.325 1.323-.474l.021-7.061Z"/><path fill="#9B513B" d="M183.495 256.166c-.129.02-.258.033-.387.054-.149.02-.298.047-.448.061a3.915 3.915 0 0 0-.149.02l-.02 7.169c.332-.034.658-.095.984-.156l.02-7.148Z"/><path fill="#964F39" d="M182.504 256.308c-.041.006-.081.006-.122.006-.027 0-.061.007-.088.007h-.034c-.129.007-.251.02-.38.027h-.034l-.02 7.142c.149-.006.298.021.447.007.028 0 .061-.007.089-.007l.122-.02.02-7.162Z"/><path fill="#924C38" d="M181.846 256.348c-.115.007-.231 0-.339 0h-.184l-.02 7.136c.176.006.346.013.523.006l.02-7.142Z"/><path fill="#8D4A36" d="M181.323 256.355c-.074 0-.142-.007-.217-.013-.081-.007-.156-.007-.237-.014l-.021 7.149c.15.013.299 0 .455.007l.02-7.129Z"/><path fill="#894734" d="M180.869 256.328a4.032 4.032 0 0 1-.265-.027c-.02 0-.04-.007-.054-.007a.722.722 0 0 0-.122-.013l-.014 7.155c.048.007.075.034.122.041.109.013.211-.007.319.007l.014-7.156Z"/><path fill="#844532" d="M180.435 256.281a5.024 5.024 0 0 1-.469-.082l-.02 7.088c.17.041.285.129.468.149l.021-7.155Z"/><path fill="#804331" d="M179.966 256.199a5.764 5.764 0 0 1-.495-.121l-.02 7.047c.169.054.312.122.495.162l.02-7.088Z"/><path fill="#7B402F" d="M179.471 256.078a7.283 7.283 0 0 1-.59-.197l-.021 7.054c.183.075.394.129.591.19l.02-7.047Z"/><path fill="#773E2D" d="M178.88 255.881a5.352 5.352 0 0 1-.793-.386c-2.572-1.482-3.292-4.508-4.309-6.228-.727-1.205-1.622-2.383-2.593-3.527-1.438-1.692-3.074-3.351-4.587-5.023-.4-.44-.807-.894-1.215-1.368-.115-.135-.23-.264-.346-.399a35.746 35.746 0 0 1-1.017-1.246 8.334 8.334 0 0 1-.258-.325 21.038 21.038 0 0 1-1.086-1.557c-.081-.121-.149-.25-.224-.372a13.661 13.661 0 0 1-.685-1.286c-.068-.149-.136-.291-.197-.433-.224-.542-.414-1.084-.523-1.625-.013-.061-.006-.122-.02-.19a6.042 6.042 0 0 1-.109-1.042l-.02 7.182c-.014 3.399 3.074 6.987 5.673 9.844 1.513 1.672 3.155 3.33 4.594 5.023.97 1.144 1.866 2.315 2.592 3.527 1.025 1.713 1.737 4.745 4.309 6.228.217.129.55.156.794.257l.02-7.054Z"/><path fill="#E47757" d="M161.563 233.724c.061.149.129.291.197.433.204.434.428.86.685 1.287.075.121.143.25.224.372.333.528.699 1.049 1.086 1.557.082.108.17.217.258.325.332.42.672.839 1.018 1.246a82.878 82.878 0 0 0 1.561 1.766c1.513 1.673 3.155 3.331 4.587 5.024.97 1.144 1.866 2.315 2.592 3.527 1.025 1.712 1.737 4.745 4.309 6.228.679.392 1.493.677 2.47.799h.054c.163.02.333 0 .496.006.135.007.264.007.4.007.122 0 .251.007.373.007.129-.007.251.013.38.007h.034c.027 0 .061-.007.088-.007.095-.007.184-.034.279-.041.156-.02.298-.047.448-.067.19-.027.373-.055.563-.088.135-.027.278-.034.414-.068.135-.027.224-.095.353-.129.556-.142 1.011-.359 1.513-.541.197-.075.414-.136.604-.217.529-.223 1.065-.44 1.54-.704.448-.25.848-.528 1.255-.806.211-.148.455-.27.659-.426.149-.108.312-.203.454-.318a34.055 34.055 0 0 0 2.029-1.767c.061-.061.136-.108.197-.169.536-.501 1.065-.989 1.595-1.483.237-.217.468-.447.705-.657.082-.074.157-.155.238-.23.251-.23.482-.46.719-.697.068-.068.143-.135.211-.203.217-.224.42-.454.624-.684.271-.311.55-.616.801-.934.149-.196.278-.393.42-.589.184-.257.374-.515.543-.772a12.1 12.1 0 0 0 .448-.765c.149-.264.305-.521.434-.792.129-.257.238-.514.346-.772.129-.291.258-.575.367-.873.088-.237.149-.474.224-.711.088-.284.176-.575.244-.866a9.77 9.77 0 0 0 .143-.745c.054-.291.101-.582.135-.873.028-.244.034-.494.048-.738.244-4.759-2.206-9.498-8.082-12.89a26.785 26.785 0 0 0-3.223-1.57c-4.744-1.957-11.088-2.735-16.666-1.639-4.703.928-7.716 2.925-10.186 5.308-1.649 1.591-2.056 3.337-1.757 5.104.013.061.006.122.02.19.115.555.305 1.097.529 1.638Zm8.496-8.55a9.864 9.864 0 0 1 2.063-.589c.74-.135 1.506-.23 2.273-.291a44.755 44.755 0 0 1 4.581-.149c1.527.034 3.053.142 4.546.332.848.108 1.683.325 2.47.609a13.46 13.46 0 0 1 2.206 1.029c.57.332 1.085.677 1.52 1.022a8.004 8.004 0 0 1 1.554 1.638c.42.583.76 1.185 1.085 1.788.957 1.827 2.151 3.662 3.02 5.517.265.569.489 1.144.672 1.726.041.122.068.244.108.366.204.711.36 1.421.38 2.146.014.48-.02.961-.115 1.442-.665 3.642-3.59 7.162-8.306 9.626-1.974 1.029-4.852 1.903-7.172 1.151a5.187 5.187 0 0 1-.964-.42 7.7 7.7 0 0 1-1.215-.907 15.91 15.91 0 0 1-1.811-1.855c-1.554-1.868-2.45-3.77-3.692-5.767-1.642-2.627-4.343-5.003-5.741-7.698-1.493-2.85-2.259-8.672 2.538-10.716Z"/><path fill="#C85436" d="M180.516 233.704ZM179.132 234.144ZM177.048 234.367c.577.061 1.147-.007 1.704-.129-.55.122-1.127.19-1.704.129ZM174.986 237.705a12.051 12.051 0 0 1-.38-.142l.38.142ZM176.282 238.07c.162.034.332.061.502.088.095.014.183.027.278.034a9.416 9.416 0 0 1-2.077-.487c.218.074.435.149.659.209.21.061.42.116.638.156ZM186.433 234.645c-.448.379-.977.717-1.527 1.049.055-.034.116-.061.17-.088a9.834 9.834 0 0 0 1.357-.961ZM187.383 233.683c.014-.02.034-.033.048-.047.108-.135.203-.278.285-.413a1.604 1.604 0 0 0 .19-.467c.007-.02.007-.047.013-.068-.054.312-.264.657-.536.995Z"/><path fill="#C85436" d="M177.537 238.219c.15.007.292 0 .435 0 .169-.007.339-.02.508-.034l.123-.02a7.387 7.387 0 0 1-1.548.027c.021 0 .048.007.068.007.143.013.278.02.414.02ZM180.754 237.644c-.143.047-.279.108-.421.148l.163-.04c.088-.027.163-.075.258-.108ZM187.132 233.948c-.231.25-.468.5-.692.697l.217-.197c.163-.148.312-.331.475-.5Z"/><path fill="#C85436" d="M167.514 235.877c1.398 2.694 4.099 5.063 5.741 7.697 1.242 1.997 2.138 3.899 3.692 5.767a17.035 17.035 0 0 0 1.811 1.855c.36.319.754.644 1.215.908.285.162.604.311.964.419 2.32.752 5.204-.122 7.172-1.151 4.716-2.464 7.641-5.984 8.306-9.626.088-.488.129-.968.115-1.442-.02-.718-.169-1.435-.373-2.139-.034-.122-.068-.251-.108-.373a15.696 15.696 0 0 0-.672-1.719c-.869-1.855-2.07-3.69-3.02-5.517-.326-.603-.665-1.206-1.086-1.788a7.998 7.998 0 0 0-1.553-1.638c-.435-.345-.951-.69-1.521-1.022a14.052 14.052 0 0 0-2.205-1.029 11.396 11.396 0 0 0-2.47-.609 43.864 43.864 0 0 0-4.546-.332 42.954 42.954 0 0 0-4.581.149c-.767.067-1.533.155-2.273.291-.74.142-1.439.325-2.063.589-4.798 2.051-4.031 7.873-2.545 10.71Zm5.911-10.02c1.907-.379 4.031-.358 5.964-.047 1.901.311 3.624.921 5.022 1.726 2.348 1.354 3.766 3.25 3.495 5.152.02-.122.027-.251.034-.372v-.088l-.007 1.563v.021c0 .149-.014.298-.034.447 0 .006-.014.013-.014.02-.006.034-.047.074-.061.108-.02.075-.088.163-.129.237-.081.176-.142.352-.285.535-.027.034-.02.061-.047.088-.075.095-.17.176-.251.271a7.985 7.985 0 0 1-.475.48c-.075.068-.143.156-.217.217-.401.338-.876.636-1.358.934-.061.034-.108.081-.169.115-.638.373-1.317.725-2.009 1.063a19.37 19.37 0 0 1-2.144.887 4.01 4.01 0 0 0-.265.095c-.054.02-.108.04-.163.054-.176.054-.359.088-.543.135a6.122 6.122 0 0 1-.631.129c-.149.027-.291.074-.441.088-.04.007-.074.013-.115.013-.041.007-.081 0-.122 0-.17.014-.339 0-.509.007-.143.007-.292.014-.434.007-.136 0-.272.02-.408.007h-.067c-.102-.014-.184-.054-.279-.068-.176-.027-.332-.081-.502-.115-.217-.047-.427-.088-.638-.149-.21-.061-.454-.081-.658-.156-.136-.047-.244-.121-.38-.176-.563-.223-1.12-.46-1.595-.731-2.307-1.327-3.657-3.202-4.485-5.043a3.057 3.057 0 0 1-.271-1.28l.006-1.564c0 .048.028.088.028.136-.075-2.004 1.791-4.048 5.157-4.746Z"/><path fill="#C85436" d="M179.79 237.935a9.52 9.52 0 0 1-1.066.223c.15-.02.299-.034.442-.061.21-.047.413-.115.624-.162Z"/><path fill="#A0533D" d="M178.759 234.238c.128-.027.244-.061.373-.094-.129.033-.245.067-.373.094Z"/><path fill="#C85436" d="M172.04 228.403a1.884 1.884 0 0 0-.257.331c1.431-.575 3.501-.88 4.967-.738 1.309.122 2.382.461 3.196.928 1.961 1.13 2.47 3.019 1.276 4.461l-.082.102c2.972-1.375 2.911-4.17.34-5.653-.815-.467-1.887-.812-3.19-.927a7.241 7.241 0 0 0-.692-.028c-1.981-.006-4.574.589-5.558 1.524Z"/><path fill="#C4674B" d="M171.484 229.628c.061.44.305.907.645 1.368.672.914 1.73 1.794 2.517 2.362.19.136.394.271.611.393.509.291 1.093.535 1.798.609.577.061 1.147-.007 1.704-.128.128-.028.244-.061.373-.095.482-.129.957-.278 1.384-.44a7.02 7.02 0 0 0 .719-.312c1.188-1.448.679-3.337-1.275-4.461-.821-.474-1.894-.812-3.197-.927-1.472-.143-3.542.162-4.967.738.075-.116.143-.231.258-.332.977-.934 3.576-1.53 5.564-1.523-.495-.014-1.045.02-1.594.088-1.099.135-2.226.406-3.074.792-.428.189-.781.413-1.025.65-.393.358-.509.778-.441 1.218Z"/><path fill="#949494" d="M187.933 233.805v-.02l.007-1.564v.088l-.007 1.496Z"/><path fill="#999" d="M187.892 234.272c0-.006.007-.013.014-.02.02-.149.034-.298.034-.447l.007-1.496c-.007.122-.014.251-.034.372a.229.229 0 0 1-.014.068l-.007 1.523Z"/><path fill="#9E9E9E" d="M187.899 232.756a1.205 1.205 0 0 1-.061.203l-.007 1.428c.007-.033.054-.074.061-.108l.007-1.523Z"/><path fill="#A3A3A3" d="M187.838 232.952a1.604 1.604 0 0 1-.129.264l-.007 1.402c.034-.082.109-.163.129-.237l.007-1.429Z"/><path fill="#A8A8A8" d="m187.431 233.629-.007 1.523c.136-.183.204-.359.285-.535l.007-1.401a3.312 3.312 0 0 1-.285.413Z"/><path fill="#ADADAD" d="M187.383 233.683c-.075.095-.163.17-.251.264-.163.176-.312.352-.482.508l-.007 1.544c.163-.149.319-.312.475-.481.082-.088.177-.176.252-.271.027-.027.02-.061.047-.088l.007-1.523c-.007.014-.027.027-.041.047Z"/><path fill="#B3B3B3" d="m186.433 234.645-.007 1.563c.068-.061.143-.149.218-.216l.006-1.544a1.902 1.902 0 0 1-.217.197Z"/><path fill="#999" d="m176.784 238.158-.007 1.537c.102.013.176.054.278.068l.007-1.564c-.095-.014-.19-.027-.278-.041Z"/><path fill="#949494" d="m176.282 238.07-.007 1.503c.169.034.325.095.502.115l.007-1.537a3.92 3.92 0 0 1-.502-.081Z"/><path fill="#8F8F8F" d="m175.644 237.915-.007 1.509c.203.061.421.102.638.149l.007-1.503a6.743 6.743 0 0 1-.638-.155Z"/><path fill="#8A8A8A" d="m174.986 237.705-.38-.143-.007 1.537c.135.054.237.122.38.176.203.075.448.095.658.156l.007-1.51c-.224-.067-.441-.142-.658-.216Z"/><path fill="#858585" d="M173.011 236.797c-2.307-1.327-3.658-3.202-4.485-5.043a3.097 3.097 0 0 1-.245-1.144c0-.048-.027-.088-.027-.136l-.007 1.564c0 .433.089.867.272 1.28.828 1.848 2.185 3.716 4.485 5.043.482.278 1.032.508 1.595.731l.007-1.536a10.496 10.496 0 0 1-1.595-.759Z"/><path fill="#B3B3B3" d="m185.076 235.606-.007 1.537c.489-.292.964-.596 1.357-.935l.007-1.563c-.4.345-.862.663-1.357.961Z"/><path fill="#B8B8B8" d="M184.906 235.694c-.638.372-1.309.724-2.008 1.063-.665.325-1.391.629-2.145.887-.095.033-.169.081-.264.108l-.007 1.55c.088-.027.176-.061.265-.095a21.487 21.487 0 0 0 2.144-.886 28.467 28.467 0 0 0 2.009-1.063c.061-.034.108-.081.169-.115l.007-1.537c-.054.034-.115.054-.17.088Z"/><path fill="#B3B3B3" d="M180.333 237.793c-.176.054-.36.088-.543.135-.21.054-.414.122-.631.156l-.007 1.536c.211-.04.421-.081.631-.128.184-.048.367-.081.543-.136.054-.013.109-.04.163-.054l.007-1.55c-.054.02-.116.027-.163.041Z"/><path fill="#ADADAD" d="M178.718 238.152c-.041.006-.075.013-.115.013a5.244 5.244 0 0 1-.123.02l-.006 1.551c.04-.007.081 0 .122 0 .04-.007.074-.014.115-.014.149-.02.292-.061.441-.088l.007-1.537c-.143.021-.292.034-.441.055Z"/><path fill="#A8A8A8" d="m177.978 238.219-.007 1.523c.17-.006.346.007.509-.006l.007-1.551c-.17.014-.339.027-.509.034Z"/><path fill="#A3A3A3" d="m177.537 238.219-.007 1.53c.15.007.292 0 .435-.007l.006-1.523a4.487 4.487 0 0 1-.434 0Z"/><path fill="#9E9E9E" d="m177.13 238.199-.007 1.557c.136.013.271-.007.407-.007l.007-1.53a4.25 4.25 0 0 1-.407-.02Z"/><path fill="#999" d="m177.062 238.192-.007 1.564h.068l.007-1.557c-.027 0-.047 0-.068-.007Z"/><path fill="#DCDCDC" d="M168.274 230.61c.014.386.082.772.245 1.144.828 1.848 2.185 3.716 4.485 5.043.591.339 1.249.65 1.975.907a8.536 8.536 0 0 0 2.076.488c.53.047 1.045.034 1.547-.027.041-.007.075-.014.116-.014a8.93 8.93 0 0 0 1.065-.223c.183-.048.367-.081.543-.136.143-.047.278-.101.421-.148a21.488 21.488 0 0 0 2.144-.887 28.248 28.248 0 0 0 2.009-1.063c.556-.325 1.079-.67 1.527-1.049.23-.204.468-.454.692-.698.088-.095.176-.169.251-.264.271-.331.482-.683.522-.995.272-1.902-1.147-3.798-3.494-5.152-1.398-.805-3.122-1.415-5.022-1.726-1.941-.311-4.058-.332-5.965.047-3.352.698-5.218 2.742-5.137 4.753Zm4.662-2.85c.849-.386 1.975-.664 3.074-.792a11.78 11.78 0 0 1 2.287-.061c1.303.122 2.375.46 3.189.927 2.579 1.483 2.633 4.279-.339 5.653l.082-.102a5.994 5.994 0 0 1-.72.312 13.91 13.91 0 0 1-1.384.433c-.129.034-.244.068-.373.095-.557.122-1.127.189-1.703.128a4.627 4.627 0 0 1-1.799-.609 6.867 6.867 0 0 1-.61-.392c-.788-.569-1.846-1.442-2.518-2.363-.339-.46-.577-.928-.645-1.368-.061-.44.055-.859.428-1.218.251-.237.611-.454 1.031-.643Z"/><path fill="#A17332" d="m147.787 172.162-24.206-14.033-.013-4.535 24.206 14.034.013 4.534Z"/><path fill="#B78239" d="m150.527 158.168-24.219-14.046 1.566-.894 24.219 14.033-1.566.907Z"/><path fill="#A17332" d="m150.552 166.003-24.218-14.046-.026-7.835 24.219 14.045.025 7.836Z"/><path fill="#B78239" d="m153.696 151.781-24.206-14.046 1.566-.907 24.219 14.046-1.579.907Z"/><path fill="#A17332" d="M153.696 152.763 129.49 138.73v-.995l24.206 14.046v.982Z"/><path fill="#B78239" d="m155.262 148.518-24.206-14.046.833-.478 24.206 14.045-.833.479Z"/><path fill="#A17332" d="m155.275 150.873-24.219-14.045v-2.356l24.206 14.046.013 2.355ZM152.093 157.26l-24.219-14.033-.013-3.565 24.219 14.033.013 3.565Z"/><path fill="#B78239" d="m152.08 153.695-24.219-14.033 1.629-.932 24.206 14.033-1.616.932Z"/><path fill="#A17332" d="m156.095 148.039-24.206-14.045-.012-5.039L156.083 143l.012 5.039Z"/><path fill="#A06C2D" d="m155.249 143.479-24.218-14.033.833-.491L156.083 143l-.834.479Z"/><path fill="#A17332" d="m155.249 143.479-24.218-14.045v-1.449l24.218 14.033v1.461Z"/><path fill="#B78239" d="m132.142 181.182-24.218-14.046 15.657-9.007 24.206 14.033-15.645 9.02Z"/><path fill="#B78239" d="m131.738 181.409-24.219-14.033.404-.24 24.219 14.046-.404.227ZM132.129 176.647l-24.218-14.046 15.645-9.007 24.218 14.034-15.645 9.019Z"/><path fill="#B78239" d="m132.129 176.609-24.218-14.033 18.423-10.619 24.218 14.046-18.423 10.606ZM131.725 176.874l-24.218-14.033.404-.24 24.218 14.046-.404.227Z"/><path fill="#B78239" d="m131.725 176.848-24.218-14.045.404-.227 24.218 14.033-.404.239ZM116.093 190.416l-24.219-14.033 15.645-9.007 24.219 14.033-15.645 9.007Z"/><path fill="#A17332" d="m114.477 193.149-24.206-14.045-.013-2.494 24.219 14.033v2.506Z"/><path fill="#B78239" d="m116.08 185.88-24.218-14.033 15.645-9.006 24.218 14.033-15.645 9.006Z"/><path fill="#BB853A" d="m147.774 167.627.013 4.535-15.645 9.02-.404.227-15.645 9.006-.012-4.535 15.644-9.006.404-.227 15.645-9.02Z"/><path fill="#A17332" d="m116.093 190.416-24.218-14.033-.013-4.535 24.218 14.033.013 4.535Z"/><path fill="#A06C2D" d="m132.066 155.371-24.206-14.033 23.171-13.353 24.218 14.033-23.183 13.353Z"/><path fill="#B78239" d="m113.303 187.442-24.206-14.033 18.41-10.606 24.218 14.045-18.422 10.594ZM132.066 155.031l-24.206-14.046 29.143-16.779 24.206 14.033-29.143 16.792Z"/><path fill="#A06C2D" d="m131.662 155.61-24.218-14.045.417-.227 24.205 14.033-.404.239Z"/><path fill="#B78239" d="m131.662 155.258-24.218-14.034.417-.239 24.205 14.046-.404.227Z"/><path fill="#A17332" d="m110.26 193.074-24.206-14.046-.013-4.674 24.206 14.046.013 4.674Z"/><path fill="#8D5F27" d="M113.303 187.443 89.097 173.41l-.025-7.836 24.218 14.034.013 7.835Z"/><path fill="#B78239" d="m111.711 180.515-24.205-14.034 1.565-.907 24.219 14.034-1.579.907Z"/><path fill="#8D5F27" d="m111.712 180.514-24.206-14.033-.013-3.565 24.206 14.033.013 3.565Z"/><path fill="#B78239" d="m110.083 177.894-24.219-14.046 1.629-.932 24.206 14.033-1.616.945Z"/><path fill="#8D5F27" d="m110.083 177.894-24.219-14.046v-.982l24.219 14.033v.995Z"/><path fill="#A17332" d="m107.431 190.012-24.206-14.033-.025-8.616 24.206 14.033.025 8.616Z"/><path fill="#B78239" d="m108.504 177.806-24.206-14.033 1.566-.907 24.219 14.033-1.579.907Z"/><path fill="#8D5F27" d="m108.504 177.806-24.206-14.033-.012-2.356 24.218 14.034v2.355Z"/><path fill="#B78239" d="m107.671 175.929-24.206-14.045.82-.467 24.219 14.034-.833.478Z"/><path fill="#A17332" d="m105.752 182.354-24.219-14.033-.013-6.513 24.219 14.046.013 6.5Z"/><path fill="#A06C2D" d="M107.658 170.89 83.44 156.857l.833-.478 24.206 14.033-.821.478Z"/><path fill="#8D5F27" d="m107.671 175.929-24.206-14.046-.025-5.026 24.218 14.033.013 5.039ZM108.479 170.412l-24.206-14.033v-1.462l24.206 14.034v1.461Z"/><path fill="#A06C2D" d="m108.479 168.95-24.206-14.033 23.171-13.353 24.218 14.046-23.183 13.34Z"/><path fill="#BB853A" d="m158.027 145.734 3.195-1.839-.013-5.644-29.143 16.792-.404.239-29.143 16.792.013 5.644 3.207-1.84.013 6.501 1.654-.958.025 8.617 2.816-1.625.013 4.673 4.204-2.431.013 2.494 17.261-9.939.404-.239 17.261-9.939-.012-2.495 4.217-2.431-.013-4.673 2.816-1.625-.025-8.617 1.667-.957-.026-6.5Zm-25.885 35.448-.404.239-15.645 9.007-.012-4.535 15.644-9.007.404-.239 15.645-9.007.013 4.535-15.645 9.007Zm23.133-30.309-1.566.907v.983l-1.629.932.013 3.565-1.566.907.025 7.835-18.423 10.607-.404.239-18.41 10.607-.025-7.835-1.566.907-.012-3.565-1.629.932v-.983l-1.566.907-.013-2.355-.82.478-.013-5.038.821-.479v-1.461l23.183-13.353.404-.239 23.183-13.353v1.461l.833-.479.013 5.039-.833.479v2.355Z"/><path fill="#A36E2E" d="M155.249 142.018v1.461l.834-.479.012 5.039-.833.479.012 2.355-1.578.907v.983l-1.616.932.012 3.565-1.565.907.025 7.835-18.423 10.607-.404.239-18.423 10.594-.012-7.835-1.579.907-.012-3.565-1.616.945v-.995l-1.579.907v-2.356l-.833.479-.013-5.039.821-.479v-1.461l23.183-13.34.404-.24 23.183-13.352Z"/><path fill="#A17332" d="M102.532 177.693 78.313 163.66l-.012-5.656 24.218 14.045.013 5.644Z"/><path fill="#B78239" d="m102.519 172.049-24.218-14.045 29.143-16.78 24.218 14.033-29.143 16.792Z"/><path fill="#8C5F27" d="m139.756 181.446-7.943-4.61 15.393-8.868 7.942 4.61-15.392 8.868Z"/><path fill="#8C5F27" d="m139.352 181.673-7.942-4.598.404-.239 7.942 4.61-.404.227Z"/><path fill="#AD7531" d="m155.148 172.578.013 4.459-15.392 8.869-.404.226-15.38 8.869-.013-4.46 15.38-8.868.404-.227 15.392-8.868Z"/><path fill="#7F5523" d="m123.985 195.001-7.943-4.611-.012-4.459 7.942 4.61.013 4.46Z"/><path fill="#8C5F27" d="m123.972 190.542-7.942-4.611 15.379-8.856 7.943 4.598-15.38 8.869ZM162.497 148.82l-7.942-4.61.821-.466 7.942 4.598-.821.478Z"/><path fill="#8C5F27" d="m139.693 160.523-7.943-4.598 22.805-13.139 7.942 4.598-22.804 13.139Z"/><path fill="#8C5F27" d="m139.289 160.749-7.942-4.597.404-.227 7.942 4.598-.404.226Z"/><path fill="#7F5523" d="m121.245 192.079-7.943-4.598-.025-7.71 7.943 4.598.025 7.71Z"/><path fill="#7F5523" d="m119.667 185.263-7.93-4.598-.013-3.514 7.943 4.598v3.514Z"/><path fill="#7F5523" d="m118.063 182.668-7.943-4.598v-.97l7.943 4.598v.97Z"/><path fill="#7F5523" d="m116.522 182.58-7.942-4.598v-2.305l7.93 4.598.012 2.305Z"/><path fill="#7F5523" d="m115.702 180.753-7.943-4.61-.012-4.963 7.929 4.61.026 4.963Z"/><path fill="#8C5F27" d="m115.676 175.79-7.929-4.61.82-.466 7.93 4.598-.821.478ZM116.497 173.888l-7.942-4.61 22.791-13.126 7.943 4.598-22.792 13.138Z"/><path fill="#7F5523" d="m116.497 175.312-7.93-4.598-.012-1.436 7.942 4.61v1.424Z"/><path fill="#AD7531" d="M162.497 147.384v1.436l.821-.479.012 4.963-.82.479.012 2.305-1.553.895.013.97-1.604.919.013 3.515-1.541.882.026 7.709-18.12 10.443-.404.227-18.107 10.43-.025-7.709-1.554.894v-3.515l-1.603.92v-.97l-1.541.882-.012-2.305-.808.478-.026-4.963.821-.479v-1.423l22.792-13.139.404-.227 22.804-13.138Z"/><path fill="#F6B500" d="m163.091 139.587.013 4.17-53.438 30.787-.012-4.183 53.437-30.774Z"/><path fill="#C69200" d="m109.666 174.543-33.89-19.651-.013-4.17 33.891 19.639.012 4.182Z"/><path fill="#D39C00" d="m109.654 170.361-33.891-19.639 53.437-30.787 33.891 19.652-53.437 30.774Z"/><path fill="#92B648" d="m163.722 134.699.013 4.308-55.168 31.782-.012-4.308 55.167-31.782Z"/><path fill="#75923A" d="m108.568 170.79-34.99-20.282-.012-4.308 34.989 20.281.013 4.309Z"/><path fill="#7D9D3E" d="M108.555 166.481 73.565 146.2l55.168-31.782 34.989 20.281-55.167 31.782Z"/><path fill="#98BF4C" d="m157.106 138.906.025 7.685-6.389 3.678-.025-7.684 6.389-3.679Z"/><path fill="#77953B" d="m150.742 150.269-3.485-2.016-.026-7.684 3.485 2.016.026 7.684Z"/><path fill="#74913A" d="m150.716 142.585-3.485-2.016 6.402-3.678 3.473 2.015-6.39 3.679Z"/><path fill="#98BF4C" d="m136.701 147.964.025 7.029-5.847 3.376-.025-7.029 5.847-3.376Z"/><path fill="#77953B" d="m130.879 158.369-3.181-1.852-.026-7.029 3.182 1.852.025 7.029Z"/><path fill="#74913A" d="m130.854 151.34-3.182-1.852 5.847-3.363 3.182 1.839-5.847 3.376Z"/><path fill="#97BD4B" d="m101.926 164.302-.013 8.074-6.717-3.867.025-8.075 6.705 3.868Z"/><path fill="#77953B" d="m101.926 164.302 5.316-3.074-.013 8.062-5.316 3.087.013-8.075Z"/><path fill="#75933B" d="m95.221 160.434 5.316-3.086 6.705 3.88-5.316 3.074-6.705-3.868Z"/><path fill="#97BD4B" d="m77.089 146.389-.026 6.085-5.063-2.91.025-6.097 5.064 2.922Z"/><path fill="#77953B" d="m77.089 146.39 4.015-2.331-.025 6.097-4.016 2.318.026-6.084Z"/><path fill="#75933B" d="m72.025 143.467 4.003-2.318 5.076 2.91-4.015 2.33-5.064-2.922Z"/><path fill="#95642A" d="m129.566 111.697-7.955-4.61.821-.479 7.955 4.61-.821.479Z"/><path fill="#95642A" d="m128.013 110.261-7.955-4.61 1.553-.882 7.955 4.61-1.553.882Z"/><path fill="#95642A" d="m126.41 110.211-7.955-4.611 1.603-.919 7.955 4.61-1.603.92Z"/><path fill="#95642A" d="m124.856 107.59-7.955-4.61 1.541-.882 7.955 4.611-1.541.881ZM122.104 101.443l-7.955-4.61 2.727-1.575 7.955 4.61-2.727 1.575Z"/><path fill="#95642A" d="m106.674 105.827-7.955-4.623 15.417-8.881 7.955 4.623-15.417 8.881ZM106.27 106.053l-7.955-4.61.404-.239 7.955 4.623-.404.226Z"/><path fill="#7F5523" d="m83.503 144.638-7.955-4.61v-1.424l7.955 4.611v1.423Z"/><path fill="#7F5523" d="m82.682 143.681-7.955-4.611-.012-4.976 7.955 4.611.012 4.976Z"/><path fill="#95642A" d="m82.67 138.705-7.955-4.61.82-.467 7.956 4.611-.821.466Z"/><path fill="#7F5523" d="m85.031 135.027-7.955-4.611v-.982l7.955 4.623v.97Z"/><path fill="#95642A" d="m85.031 134.057-7.955-4.623 1.591-.92 7.955 4.611-1.591.932ZM83.478 135.921l-7.955-4.611 1.553-.894 7.955 4.611-1.553.894Z"/><path fill="#7F5523" d="m83.49 138.239-7.954-4.611-.013-2.317 7.955 4.61.013 2.318ZM86.622 133.124l-7.955-4.61v-3.502l7.942 4.61.013 3.502Z"/><path fill="#95642A" d="m86.61 129.623-7.943-4.611 1.54-.894 7.956 4.61-1.553.895Z"/><path fill="#7F5523" d="m88.162 128.728-7.955-4.61-.025-7.722 7.955 4.61.025 7.722Z"/><path fill="#95642A" d="m88.137 121.006-7.955-4.61 2.69-1.55 7.955 4.611-2.69 1.549Z"/><path fill="#7F5523" d="m90.827 119.457-7.955-4.611.025-4.522 7.955 4.61-.025 4.523Z"/><path fill="#95642A" d="m90.852 114.934-7.955-4.61 15.417-8.881 7.955 4.61-15.417 8.881Z"/><path fill="#AD7531" d="m122.091 96.946.013 4.497 2.727-1.575.026 7.722 1.54-.882.013 3.502 1.603-.919v.97l1.553-.882v2.318l.821-.479.013 4.976-.821.479.013 1.423-22.842 13.151-.405.24-22.842 13.151v-1.423l-.82.466-.013-4.976.82-.466-.012-2.318 1.553-.894v-.97l1.591-.933-.013-3.502 1.554-.894-.026-7.722 2.69-1.549.025-4.523 15.418-8.881.404-.226 15.417-8.881Z"/><path fill="#A17332" d="m151.701 132.016-24.218-14.033v-1.462l24.218 14.046v1.449Z"/><path fill="#B78239" d="m151.701 130.567-24.218-14.046.833-.478 24.219 14.045-.834.479ZM154.454 125.125l-24.206-14.045 3.195-1.84 24.206 14.046-3.195 1.839Z"/><path fill="#A17332" d="m152.535 130.088-24.219-14.045-.013-5.039 24.219 14.046.013 5.038Z"/><path fill="#A06C2D" d="m151.689 125.528-24.219-14.033.834-.491 24.218 14.046-.833.478Z"/><path fill="#A17332" d="m151.689 125.528-24.219-14.033-.012-2.356 24.218 14.033.013 2.356Z"/><path fill="#B78239" d="m152.775 119.583-24.219-14.046 1.667-.957 24.218 14.033-1.666.97Z"/><path fill="#A06C2D" d="m150.11 124.079-24.218-14.033 1.566-.907 24.218 14.033-1.566.907Z"/><path fill="#A17332" d="m150.11 124.08-24.218-14.046v-.982l24.206 14.033.012.995Z"/><path fill="#A06C2D" d="m148.481 124.029-24.218-14.045 1.629-.932 24.206 14.033-1.617.944Z"/><path fill="#A17332" d="m148.481 124.029-24.218-14.045-.013-3.565 24.219 14.033.012 3.577Z"/><path fill="#A06C2D" d="m146.903 121.359-24.219-14.046 1.566-.894 24.219 14.033-1.566.907Z"/><path fill="#B78239" d="m149.933 112.579-24.218-14.034 2.816-1.625 24.218 14.046-2.816 1.613ZM128.531 145.369l-24.219-14.046 23.171-13.34 24.218 14.033-23.17 13.353Z"/><path fill="#A17332" d="m146.903 121.359-24.219-14.046-.012-7.835 24.206 14.045.025 7.836Z"/><path fill="#B78239" d="m128.114 145.595-24.218-14.033.416-.239 24.219 14.046-.417.226ZM145.703 110.324l-24.206-14.033 4.205-2.431 24.219 14.033-4.218 2.431Z"/><path fill="#A06C2D" d="m128.468 124.13-24.219-14.046 18.423-10.606 24.206 14.045-18.41 10.607Z"/><path fill="#A17332" d="m144.113 115.085-24.219-14.033-.012-4.535L144.1 110.55l.013 4.535Z"/><path fill="#B78239" d="m128.468 124.105-24.219-14.046 15.645-9.007 24.219 14.033-15.645 9.02Z"/><path fill="#A06C2D" d="m128.051 124.357-24.206-14.033.404-.24 24.219 14.046-.417.227Z"/><path fill="#B78239" d="m128.051 124.331-24.206-14.033.404-.239 24.219 14.046-.417.226ZM128.455 119.57l-24.218-14.046 15.644-9.007L144.1 110.55l-15.645 9.02Z"/><path fill="#B78239" d="m128.038 119.797-24.206-14.033.405-.24 24.218 14.046-.417.227ZM104.944 158.948l-24.219-14.033 23.171-13.353 24.218 14.033-23.17 13.353Z"/><path fill="#8D5F27" d="m104.931 158.948-24.206-14.033v-1.448l24.206 14.033v1.448Z"/><path fill="#B78239" d="m104.098 157.978-24.206-14.033.833-.478 24.206 14.033-.833.478ZM128.442 114.972l-24.218-14.033L121.485 91l24.206 14.033-17.249 9.939Z"/><path fill="#B78239" d="m128.026 115.211-24.206-14.045.404-.227 24.218 14.033-.416.239Z"/><path fill="#A06C2D" d="m104.085 152.939-24.218-14.033.833-.479 24.219 14.034-.834.478Z"/><path fill="#8D5F27" d="m104.098 157.978-24.206-14.033-.025-5.039 24.218 14.033.013 5.039Z"/><path fill="#A06C2D" d="m106.484 148.216-24.218-14.033 1.629-.945 24.205 14.046-1.616.932Z"/><path fill="#8D5F27" d="m106.484 149.198-24.218-14.033v-.982l24.218 14.033v.982ZM104.919 152.461 80.7 138.428v-2.356l24.206 14.033.013 2.356Z"/><path fill="#A06C2D" d="M104.906 150.105 80.7 136.072l1.566-.907 24.218 14.033-1.578.907ZM108.088 143.706l-24.206-14.033 1.566-.907 24.218 14.033-1.578.907Z"/><path fill="#8D5F27" d="m108.101 147.283-24.206-14.045-.013-3.565 24.206 14.033.013 3.577Z"/><path fill="#A17332" d="m98.971 162.74-24.218-14.033-.013-5.656 24.219 14.046.012 5.643Z"/><path fill="#B78239" d="M98.959 157.096 74.74 143.051l3.195-1.839 24.218 14.033-3.195 1.851Z"/><path fill="#A06C2D" d="m109.641 134.964-24.206-14.033 18.41-10.607 24.206 14.033-18.41 10.607Z"/><path fill="#B78239" d="M112.406 133.351 88.2 119.305l15.645-9.006 24.206 14.033-15.645 9.019Z"/><path fill="#A17332" d="m102.153 155.245-24.218-14.033-.013-6.5 24.206 14.033.025 6.5Z"/><path fill="#B78239" d="m102.128 148.744-24.206-14.033 1.667-.97 24.206 14.046-1.667.957Z"/><path fill="#A36E2E" d="m146.878 113.523.025 7.836 1.566-.907.012 3.577 1.617-.944.012.995 1.566-.907.013 2.355.833-.478.013 5.038-.834.479v1.449l-23.183 13.353-.404.226-23.183 13.353V157.5l-.833.478-.013-5.039.833-.478-.012-2.356 1.578-.907v-.982l1.616-.933-.012-3.577 1.578-.907-.025-7.835 18.41-10.607.417-.227 18.41-10.607Z"/><path fill="#8D5F27" d="m109.666 142.799-24.218-14.033-.013-7.836 24.206 14.033.025 7.836Z"/><path fill="#A17332" d="m112.406 133.351-24.218-14.033-.013-4.535 24.218 14.033.013 4.535Z"/><path fill="#B78239" d="m112.393 128.816-24.218-14.033 15.657-9.019 24.206 14.033-15.645 9.019Z"/><path fill="#BB853A" d="m144.1 110.551.013 4.534-15.645 9.02-.417.227-15.645 9.019-.012-4.535 15.644-9.019.417-.227 15.645-9.019Z"/><path fill="#A17332" d="m103.795 147.788-24.206-14.046-.025-8.617 24.205 14.046.026 8.617Z"/><path fill="#B78239" d="m103.769 139.171-24.206-14.046 2.816-1.612 24.206 14.033-2.816 1.625ZM106.573 132.86l-24.206-14.034 4.204-2.431 24.219 14.046-4.217 2.419Z"/><path fill="#A17332" d="m106.585 137.546-24.206-14.033-.012-4.686 24.206 14.033.012 4.686ZM110.79 130.441l-24.219-14.045-.012-5.291 24.218 14.046.013 5.29Z"/><path fill="#B78239" d="m110.777 125.151-24.218-14.046 17.261-9.939 24.206 14.046-17.249 9.939Z"/><path fill="#BB853A" d="m157.649 123.286-3.195 1.839-.013-6.5-1.666.957-.026-8.616-2.815 1.625-.013-4.686-4.217 2.431-.013-5.291-17.261 9.939-.404.24-17.249 9.926.013 5.291-4.217 2.431.012 4.686-2.816 1.625.026 8.617-1.667.957.013 6.5-3.195 1.839.013 5.644 29.143-16.792.404-.239 29.168-16.78-.025-5.643Zm-29.611-3.489.405-.24 15.644-9.007.013 4.535-15.645 9.007-.404.239-15.645 9.007-.012-4.535 15.644-9.006Zm23.663 12.219-23.183 13.352-.404.24-23.17 13.34v-1.449l-.834.479-.012-5.039.833-.478-.012-2.356 1.565-.907v-.983l1.629-.932-.012-3.577 1.565-.907-.025-7.836 18.41-10.606.404-.24 18.423-10.606.025 7.835 1.566-.907.013 3.565 1.628-.932v.982l1.566-.907.013 2.356.833-.479.013 5.039-.834.479v1.474Z"/><path fill="#95642A" d="m158.583 130.542-7.955-4.61.821-.466 7.955 4.61-.821.466Z"/><path fill="#95642A" d="m157.03 129.119-7.955-4.611 1.54-.894 7.955 4.61-1.54.895Z"/><path fill="#95642A" d="m155.426 129.068-7.955-4.61 1.591-.932 7.955 4.61-1.591.932Z"/><path fill="#95642A" d="m153.86 126.448-7.955-4.61 1.553-.895 7.955 4.611-1.553.894ZM151.12 120.288l-7.955-4.61 2.728-1.562 7.942 4.61-2.715 1.562Z"/><path fill="#95642A" d="m135.69 124.672-7.955-4.611 15.418-8.881 7.955 4.611-15.418 8.881Z"/><path fill="#95642A" d="m135.286 124.899-7.955-4.611.404-.227 7.955 4.611-.404.227Z"/><path fill="#7F5523" d="m112.52 163.496-7.955-4.623-.013-1.424 7.955 4.611.013 1.436Z"/><path fill="#7F5523" d="m111.686 162.538-7.955-4.61-.012-4.976 7.955 4.611.012 4.975Z"/><path fill="#95642A" d="m111.674 157.563-7.955-4.611.821-.479 7.955 4.611-.821.479Z"/><path fill="#7F5523" d="m114.035 153.872-7.955-4.611v-.97l7.955 4.611v.97Z"/><path fill="#95642A" d="m114.035 152.902-7.955-4.611 1.604-.919 7.955 4.61-1.604.92ZM112.495 154.766l-7.955-4.61 1.54-.895 7.955 4.611-1.54.894Z"/><path fill="#7F5523" d="m112.495 157.084-7.955-4.611v-2.317l7.955 4.61v2.318ZM115.639 151.982l-7.955-4.61-.013-3.515 7.955 4.611.013 3.514Z"/><path fill="#95642A" d="m115.626 148.468-7.955-4.611 1.541-.882 7.955 4.611-1.541.882Z"/><path fill="#7F5523" d="m117.166 147.586-7.955-4.61-.025-7.722 7.955 4.61.025 7.722Z"/><path fill="#95642A" d="m117.141 139.864-7.955-4.611 2.702-1.562 7.955 4.611-2.702 1.562Z"/><path fill="#7F5523" d="m119.843 138.302-7.955-4.61.026-4.523 7.955 4.611-.026 4.522Z"/><path fill="#95642A" d="m119.869 133.78-7.955-4.611 15.417-8.881 7.955 4.611-15.417 8.881Z"/><path fill="#AD7531" d="m151.108 115.791.013 4.497 2.714-1.562.026 7.722 1.553-.895.012 3.515 1.591-.932.013.982 1.54-.894.013 2.318.821-.466.012 4.963-.82.479v1.423l-22.842 13.164-.405.227-22.829 13.164-.013-1.436-.82.478-.013-4.976.821-.478v-2.318l1.54-.894v-.97l1.604-.92-.013-3.515 1.541-.881-.026-7.722 2.703-1.562.025-4.523 15.417-8.881.404-.226 15.418-8.881Z"/></svg>