<svg xmlns="http://www.w3.org/2000/svg" width="222" height="42" fill="none"><g clip-path="url(#a)"><path fill="#3649F1" d="M34.096 9.102c-3.654 0-6.95 1.577-9.255 4.093l4.127 6.289c.89-1.966 2.853-3.335 5.128-3.335 3.11 0 5.638 2.554 5.638 5.693s-2.529 5.692-5.638 5.692c-2.102 0-3.84-1.226-4.906-2.893-5.43-8.492-4.611-7.297-6.368-10.068-.427-.674-.94-1.372-1.069-1.508-2.3-2.44-5.544-3.963-9.135-3.963C5.661 9.102 0 14.817 0 21.842s5.66 12.74 12.618 12.74c3.673 0 6.983-1.592 9.29-4.13l-4.099-6.389c-.859 2.039-2.862 3.471-5.19 3.471-3.11 0-5.639-2.553-5.639-5.692 0-3.14 2.53-5.693 5.638-5.693 2.074 0 3.833 1.173 4.87 2.828 4.259 6.796 4.654 7.323 6.498 10.212.475.744 1.243 1.713 1.494 1.95a12.507 12.507 0 0 0 8.616 3.443c6.958 0 12.619-5.715 12.619-12.74s-5.661-12.74-12.619-12.74Z"/></g><path fill="#000" d="M59.127 35h4.538V10.141h-4.538V35Zm8.952 0h4.372V24.356c0-1.18.333-2.125 1-2.837.69-.711 1.58-1.067 2.67-1.067 1.09 0 1.969.356 2.636 1.067.69.69 1.034 1.636 1.034 2.837V35h4.372V23.321c0-1.357-.29-2.547-.868-3.57a6.11 6.11 0 0 0-2.436-2.436c-1.023-.578-2.202-.867-3.537-.867-1.134 0-2.157.222-3.07.667a4.78 4.78 0 0 0-2.068 1.969v-2.236h-4.105V35Zm21.882 0h4.371V20.752h6.34V35h4.371V16.848h-10.71v-.6c0-.913.266-1.58.8-2.003.556-.445 1.313-.667 2.27-.667.355 0 .733.033 1.134.1v-3.77a8.026 8.026 0 0 0-1.702-.167c-2.091 0-3.76.567-5.005 1.702-1.246 1.134-1.869 2.736-1.869 4.804v.601h-3.203v3.904h3.203V35Zm18.72 0h4.371V24.356c0-1.18.334-2.125 1.001-2.837.69-.711 1.58-1.067 2.67-1.067 1.09 0 1.968.356 2.636 1.067.689.69 1.034 1.636 1.034 2.837V35h4.371V23.321c0-1.357-.289-2.547-.867-3.57a6.118 6.118 0 0 0-2.436-2.436c-1.023-.578-2.202-.867-3.537-.867-1.135 0-2.158.222-3.07.667a4.782 4.782 0 0 0-2.069 1.969v-2.236h-4.104V35Zm19.78-20.187h4.371V10.14h-4.371v4.672Zm0 20.187h4.371V16.848h-4.371V35Zm6.772 0h5.138l3.804-5.64 3.771 5.64h5.105l-6.307-9.11 6.34-9.042h-5.105l-3.804 5.64-3.837-5.64h-5.139l6.373 9.043L135.233 35ZM175.962 18.82c.558 0 1.088-.098 1.59-.292a3.958 3.958 0 0 0 2.22-2.135c.219-.51.328-1.08.328-1.711v-.801h-4.15v1.031h2.949v.049c0 .542-.134 1.02-.401 1.432-.259.412-.61.736-1.055.97a3.082 3.082 0 0 1-1.481.352c-.631 0-1.193-.15-1.686-.449-.486-.299-.87-.716-1.153-1.25-.275-.533-.412-1.152-.412-1.856 0-.712.137-1.335.412-1.869.275-.533.655-.95 1.141-1.25.493-.299 1.055-.448 1.686-.448s1.173.153 1.626.46c.453.308.781.725.983 1.25l1.068-.521a3.108 3.108 0 0 0-.74-1.116 3.943 3.943 0 0 0-1.262-.85c-.494-.218-1.052-.327-1.675-.327a4.41 4.41 0 0 0-1.771.352 4.227 4.227 0 0 0-1.408.97c-.396.42-.704.914-.922 1.48a5.16 5.16 0 0 0-.328 1.87c0 .67.11 1.293.328 1.868a4.67 4.67 0 0 0 .934 1.48c.397.413.866.736 1.408.97.542.227 1.132.34 1.771.34Zm4.835-.146h1.274l.74-2.124h3.859l.74 2.124h1.274l-3.24-9.04h-1.407l-3.24 9.04Zm2.39-3.216 1.553-4.477 1.554 4.477h-3.107Zm6.636 3.216h1.189v-6.868l2.949 4.198h.097l2.936-4.137v6.807h1.201v-9.04h-1.092l-3.082 4.417-3.106-4.417h-1.092v9.04Zm10.38 0h1.189v-9.04h-1.189v9.04Zm3.199 0h1.189v-6.77l4.757 6.77h.995v-9.04h-1.201v6.674l-4.745-6.674h-.995v9.04Zm13.132.145c.558 0 1.088-.097 1.59-.29a3.958 3.958 0 0 0 2.22-2.136c.219-.51.328-1.08.328-1.711v-.801h-4.15v1.031h2.949v.049c0 .542-.134 1.02-.401 1.432-.259.412-.61.736-1.055.97a3.082 3.082 0 0 1-1.481.352c-.631 0-1.193-.15-1.686-.449-.486-.299-.87-.716-1.153-1.25-.275-.533-.412-1.152-.412-1.856 0-.712.137-1.335.412-1.869.275-.533.655-.95 1.141-1.25.493-.299 1.055-.448 1.686-.448s1.173.153 1.626.46c.453.308.781.725.983 1.25l1.068-.521a3.108 3.108 0 0 0-.74-1.116 3.943 3.943 0 0 0-1.262-.85c-.494-.218-1.052-.327-1.675-.327a4.41 4.41 0 0 0-1.771.352 4.227 4.227 0 0 0-1.408.97c-.396.42-.704.914-.922 1.48a5.16 5.16 0 0 0-.328 1.87c0 .67.11 1.293.328 1.868a4.67 4.67 0 0 0 .934 1.48c.397.413.866.736 1.408.97.542.227 1.132.34 1.771.34Z"/><path stroke="#000" stroke-width=".485" d="M162.592 9.102v25.48"/><defs><clipPath id="a"><path fill="#fff" d="M0 9.102h46.715v25.48H0z"/></clipPath></defs></svg>